<?xml version="1.0" encoding="iso-8859-1"?>
<!-- Generator: Adobe Illustrator 18.0.0, SVG Export Plug-In . SVG Version: 6.00 Build 0)  -->
<!DOCTYPE svg PUBLIC "-//W3C//DTD SVG 1.1//EN" "http://www.w3.org/Graphics/SVG/1.1/DTD/svg11.dtd">
<svg version="1.1" id="Capa_1" xmlns="http://www.w3.org/2000/svg" xmlns:xlink="http://www.w3.org/1999/xlink" x="0px" y="0px"
	 viewBox="0 0 297 297" style="enable-background:new 0 0 297 297;" xml:space="preserve">
<g>
	<path d="M186.273,20.615C169.642,8.577,153.218,1.169,152.527,0.86c-2.563-1.146-5.49-1.146-8.051,0
		c-0.691,0.309-17.117,7.717-33.748,19.755c-23.936,17.325-36.07,35.234-36.07,53.229v213.305c0,5.44,4.41,9.853,9.852,9.853
		h127.982c5.441,0,9.852-4.412,9.852-9.853V73.844C222.343,55.849,210.208,37.94,186.273,20.615z M148.501,20.756
		c17.551,8.725,54.139,31.37,54.139,53.088v11.479H94.361V73.843C94.361,52.123,130.956,29.477,148.501,20.756z M94.361,277.296
		V105.026H202.64v172.271H94.361z"/>
	<path d="M127.169,127.983c-5.439,0-9.852,4.411-9.852,9.852v68.036c0,5.44,4.412,9.852,9.852,9.852
		c5.442,0,9.854-4.411,9.854-9.852v-68.036C137.023,132.394,132.611,127.983,127.169,127.983z"/>
	<path d="M127.169,228.53c-5.439,0-9.852,4.411-9.852,9.852v20.301c0,5.441,4.412,9.852,9.852,9.852
		c5.442,0,9.854-4.411,9.854-9.852v-20.301C137.023,232.941,132.611,228.53,127.169,228.53z"/>
</g>
<g>
</g>
<g>
</g>
<g>
</g>
<g>
</g>
<g>
</g>
<g>
</g>
<g>
</g>
<g>
</g>
<g>
</g>
<g>
</g>
<g>
</g>
<g>
</g>
<g>
</g>
<g>
</g>
<g>
</g>
</svg>
