<?xml version="1.0" encoding="iso-8859-1"?>
<!-- Generator: Adobe Illustrator 18.0.0, SVG Export Plug-In . SVG Version: 6.00 Build 0)  -->
<!DOCTYPE svg PUBLIC "-//W3C//DTD SVG 1.1//EN" "http://www.w3.org/Graphics/SVG/1.1/DTD/svg11.dtd">
<svg version="1.1" id="Capa_1" xmlns="http://www.w3.org/2000/svg" xmlns:xlink="http://www.w3.org/1999/xlink" x="0px" y="0px"
	 viewBox="0 0 297 297" style="enable-background:new 0 0 297 297;" xml:space="preserve">
<path d="M235.155,98.701c0.619-2.479,0.963-4.98,1.074-7.454h50.547c5.647,0,10.224-4.578,10.224-10.224
	c0-5.646-4.577-10.224-10.224-10.224h-56.614c-1.54-1.917-3.325-3.547-5.306-4.834c-0.469-9.236-3.046-17.831-7.481-25.326h69.401
	c5.647,0,10.224-4.578,10.224-10.224c0-5.646-4.577-10.225-10.224-10.225h-91.25c-9.73-5.113-21.245-7.867-33.479-7.867
	c-12.234,0-23.751,2.754-33.48,7.867H20.816v-6.645c0-5.646-4.577-10.225-10.224-10.225h-0.369C4.578,3.322,0,7.9,0,13.547v253.037
	c0,5.646,4.578,10.225,10.224,10.225h0.369c5.646,0,10.224-4.578,10.224-10.225v-23.515h23.145v14.002
	c0,5.647,4.578,10.224,10.224,10.224h23.516v16.158c0,5.647,4.578,10.225,10.224,10.225h148.243c5.646,0,10.224-4.578,10.224-10.225
	v-16.158h23.516c5.646,0,10.224-4.577,10.224-10.224v-14.002h6.646c5.647,0,10.224-4.577,10.224-10.224
	c0-5.646-4.577-10.224-10.224-10.224h-6.664c-0.239-11.987-6.457-21.983-15.274-30.16h21.939c5.647,0,10.224-4.577,10.224-10.224
	s-4.577-10.224-10.224-10.224h-54.186c-0.404,0-0.8,0.03-1.191,0.075c-12.79-5.425-23.947-8.395-27.262-9.221
	c-0.546-0.215-1.112-0.395-1.706-0.516c-6.278-1.282-5.136-12.659-5.102-12.991c0.079-0.659,0.089-1.309,0.044-1.946
	c1.562-1.726,3.08-3.58,4.559-5.561h84.844c5.647,0,10.224-4.577,10.224-10.224c0-5.647-4.577-10.224-10.224-10.224H216.64
	C225.273,118.176,232.404,109.735,235.155,98.701z M204.488,69.079c0,1.067-0.023,2.219-0.067,3.425
	c-0.197,5.36,3.842,9.971,9.176,10.549c0.237,0.059,0.91,0.643,1.476,2.066c0.936,2.357,1.024,5.504,0.243,8.634
	c-1.512,6.064-5.212,8.638-6.529,8.638c-0.003,0-0.005,0-0.007,0c-4.918-1.156-9.94,1.443-11.828,6.128
	c-6.523,16.181-17.876,35.469-34.903,35.469c-17.029,0-28.381-19.288-34.906-35.47c-1.586-3.933-5.447-6.393-9.555-6.393
	c-0.782,0-1.575,0.09-2.362,0.275c-1.221,0-4.933-2.573-6.447-8.649c-0.781-3.128-0.692-6.274,0.243-8.632
	c0.565-1.424,1.238-2.008,1.536-2.075c5.333-0.577,9.313-5.18,9.115-10.54c-0.044-1.206-0.067-2.357-0.067-3.425
	c0-25.081,21.317-36.308,42.443-36.308C183.172,32.771,204.488,43.998,204.488,69.079z M189.828,179.1
	c-4.122,9.725-16.939,17.141-27.781,17.141c-10.842,0-23.66-7.416-27.782-17.141c6.769-4.137,10.311-10.936,11.925-17.672
	c5.033,1.988,10.327,3.007,15.858,3.007c5.53,0,10.823-1.019,15.855-3.007C179.518,168.163,183.06,174.963,189.828,179.1z
	 M92.872,172.015H20.816v-30.16h101.345c1.474,1.976,2.989,3.826,4.547,5.548c-0.042,0.641-0.029,1.292,0.054,1.953
	c0.013,0.117,1.239,11.703-5.1,12.998c-0.595,0.12-1.16,0.301-1.707,0.516C116.656,163.691,105.587,166.639,92.872,172.015z
	 M87.863,91.247c0.112,2.473,0.455,4.974,1.073,7.452c2.752,11.036,9.884,19.477,18.518,22.708H20.816v-30.16H87.863z M106.72,40.64
	c-4.438,7.495-7.014,16.091-7.483,25.327c-1.979,1.287-3.765,2.916-5.306,4.833H20.816V40.64H106.72z M20.816,192.462h38.438
	c-8.817,8.177-15.035,18.173-15.274,30.16H20.816V192.462z M225.944,273.229H98.149v-30.16h127.795V273.229z M259.684,246.848
	h-13.292v-14.002c0-5.646-4.578-10.224-10.224-10.224H87.925c-5.646,0-10.224,4.578-10.224,10.224v14.002H64.409v-23.515
	c0-16.428,29.42-30.72,50.441-37.676c6.973,18.404,28.016,31.03,47.196,31.03c19.181,0,40.223-12.626,47.195-31.029
	c21.026,6.958,50.441,21.248,50.441,37.675V246.848z"/>
<g>
</g>
<g>
</g>
<g>
</g>
<g>
</g>
<g>
</g>
<g>
</g>
<g>
</g>
<g>
</g>
<g>
</g>
<g>
</g>
<g>
</g>
<g>
</g>
<g>
</g>
<g>
</g>
<g>
</g>
</svg>
