<?xml version="1.0" encoding="iso-8859-1"?>
<!-- Generator: Adobe Illustrator 18.0.0, SVG Export Plug-In . SVG Version: 6.00 Build 0)  -->
<!DOCTYPE svg PUBLIC "-//W3C//DTD SVG 1.1//EN" "http://www.w3.org/Graphics/SVG/1.1/DTD/svg11.dtd">
<svg version="1.1" id="Capa_1" xmlns="http://www.w3.org/2000/svg" xmlns:xlink="http://www.w3.org/1999/xlink" x="0px" y="0px"
	 viewBox="0 0 297 297" style="enable-background:new 0 0 297 297;" xml:space="preserve">
<g>
	<path d="M238.192,32.616h-7.412V9.884c0-2.963-1.329-5.769-3.622-7.648c-2.293-1.877-5.307-2.627-8.211-2.042L56.857,32.81
		l-0.003,0.001c-4.522,0.907-7.931,4.9-7.931,9.688v244.617c0,5.458,4.425,9.884,9.884,9.884h179.385
		c5.459,0,9.884-4.426,9.884-9.884V42.499C248.076,37.041,243.651,32.616,238.192,32.616z M211.014,21.954v10.662h-52.984
		L211.014,21.954z M228.31,277.233H68.69V52.383H228.31V277.233z"/>
	<path d="M148.5,235c37.495,0,68-30.505,68-68s-30.505-68-68-68s-68,30.505-68,68S111.005,235,148.5,235z M181.685,186.076
		c0.576-4.027,0.975-8.227,1.172-12.576h17.442C197.116,178.235,190.63,182.75,181.685,186.076z M200.299,160.5h-17.442
		c-0.197-4.35-0.596-8.549-1.172-12.576C190.63,151.25,197.116,155.766,200.299,160.5z M196.841,140.785
		c-5.231-3.027-11.383-5.547-18.234-7.435c-1.737-6.032-3.938-11.433-6.533-16.032C182.595,122.331,191.286,130.584,196.841,140.785
		z M178.606,200.65c6.852-1.888,13.003-4.407,18.234-7.435c-5.555,10.201-14.246,18.454-24.768,23.467
		C174.668,212.082,176.869,206.682,178.606,200.65z M155,116.102c3.238,2.913,6.326,7.854,8.85,14.337
		c-2.88-0.365-5.83-0.634-8.85-0.79V116.102z M155,142.666c4.508,0.256,8.788,0.77,12.793,1.503
		c1.02,5.025,1.731,10.505,2.039,16.331H155V142.666z M155,173.5h14.832c-0.308,5.827-1.019,11.307-2.039,16.331
		c-4.005,0.733-8.285,1.247-12.793,1.503V173.5z M155,204.352c3.019-0.156,5.97-0.425,8.85-0.79
		c-2.523,6.483-5.611,11.424-8.85,14.337V204.352z M142,217.899c-3.238-2.913-6.326-7.854-8.85-14.337
		c2.88,0.365,5.83,0.634,8.85,0.79V217.899z M142,116.102v13.547c-3.02,0.156-5.97,0.425-8.85,0.79
		C135.674,123.955,138.762,119.015,142,116.102z M129.207,144.169c4.005-0.733,8.285-1.247,12.793-1.503V160.5h-14.832
		C127.476,154.674,128.187,149.194,129.207,144.169z M142,173.5v17.834c-4.508-0.256-8.788-0.77-12.793-1.503
		c-1.021-5.025-1.731-10.504-2.039-16.331H142z M124.927,117.319c-2.595,4.6-4.796,10-6.533,16.032
		c-6.852,1.888-13.003,4.407-18.234,7.435C105.714,130.584,114.405,122.331,124.927,117.319z M115.315,147.924
		c-0.576,4.027-0.975,8.227-1.172,12.576H96.701C99.884,155.766,106.37,151.25,115.315,147.924z M96.701,173.5h17.442
		c0.197,4.35,0.596,8.549,1.172,12.576C106.37,182.75,99.884,178.235,96.701,173.5z M118.394,200.65
		c1.737,6.032,3.938,11.433,6.533,16.032c-10.521-5.013-19.213-13.266-24.768-23.467
		C105.391,196.242,111.542,198.762,118.394,200.65z"/>
</g>
<g>
</g>
<g>
</g>
<g>
</g>
<g>
</g>
<g>
</g>
<g>
</g>
<g>
</g>
<g>
</g>
<g>
</g>
<g>
</g>
<g>
</g>
<g>
</g>
<g>
</g>
<g>
</g>
<g>
</g>
</svg>
