<?xml version="1.0" encoding="iso-8859-1"?>
<!-- Generator: Adobe Illustrator 18.0.0, SVG Export Plug-In . SVG Version: 6.00 Build 0)  -->
<!DOCTYPE svg PUBLIC "-//W3C//DTD SVG 1.1//EN" "http://www.w3.org/Graphics/SVG/1.1/DTD/svg11.dtd">
<svg version="1.1" id="Capa_1" xmlns="http://www.w3.org/2000/svg" xmlns:xlink="http://www.w3.org/1999/xlink" x="0px" y="0px"
	 viewBox="0 0 297 297" style="enable-background:new 0 0 297 297;" xml:space="preserve">
<g>
	<path d="M140.667,46.598c-12.566-12.565-29.275-19.486-47.047-19.486c-17.772,0-34.48,6.921-47.048,19.487
		c-25.941,25.941-25.941,68.152,0.001,94.094C59.142,153.26,75.85,160.18,93.622,160.18c17.771,0,34.479-6.92,47.046-19.486
		C166.609,114.751,166.609,72.54,140.667,46.598z M129.213,129.239c-9.507,9.508-22.146,14.742-35.591,14.742
		c-13.446,0-26.087-5.235-35.594-14.743c-19.626-19.626-19.627-51.56-0.002-71.186C67.534,48.545,80.174,43.31,93.62,43.31
		c13.445,0,26.086,5.235,35.593,14.743C148.84,77.679,148.84,109.613,129.213,129.239z"/>
	<path d="M288.694,227.154l-68.725-68.724c-5.339-5.339-12.458-8.279-20.044-8.279c-3.739,0-7.364,0.718-10.72,2.082l-13.518-13.52
		c19.507-35.562,14.239-81.194-15.851-111.286C142.151,9.741,118.634,0,93.62,0C68.607,0,45.091,9.741,27.402,27.428
		c-36.513,36.514-36.513,95.924,0,132.436c17.689,17.688,41.204,27.429,66.218,27.429c16.03,0,31.437-4.02,45.098-11.55
		l13.49,13.493c-4.168,10.248-2.103,22.459,6.198,30.76l68.724,68.725c5.339,5.339,12.457,8.278,20.043,8.28
		c0.001,0,0.001,0,0.001,0c7.586,0,14.704-2.941,20.044-8.281l21.477-21.476C299.745,256.19,299.745,238.207,288.694,227.154z
		 M164.49,173.593l-9.074-9.076l9.074-9.077l9.075,9.077L164.49,173.593z M41.72,145.546c-28.617-28.618-28.617-75.183,0-103.8
		c13.863-13.863,32.296-21.499,51.9-21.499c19.605,0,38.037,7.636,51.9,21.499c28.617,28.617,28.617,75.182,0,103.8
		c-13.863,13.864-32.295,21.498-51.9,21.498S55.583,159.41,41.72,145.546z M274.376,252.926L252.9,274.401
		c-1.516,1.516-3.549,2.351-5.726,2.351h-0.001c-2.178,0-4.212-0.835-5.726-2.351l-68.725-68.725c-3.157-3.157-3.157-8.295,0-11.452
		l21.477-21.476c1.515-1.516,3.549-2.351,5.726-2.351c2.178,0,4.212,0.835,5.727,2.351l68.724,68.724
		C277.534,244.63,277.534,249.769,274.376,252.926z"/>
</g>
<g>
</g>
<g>
</g>
<g>
</g>
<g>
</g>
<g>
</g>
<g>
</g>
<g>
</g>
<g>
</g>
<g>
</g>
<g>
</g>
<g>
</g>
<g>
</g>
<g>
</g>
<g>
</g>
<g>
</g>
</svg>
