<?xml version="1.0" encoding="iso-8859-1"?>
<!-- Generator: Adobe Illustrator 18.0.0, SVG Export Plug-In . SVG Version: 6.00 Build 0)  -->
<!DOCTYPE svg PUBLIC "-//W3C//DTD SVG 1.1//EN" "http://www.w3.org/Graphics/SVG/1.1/DTD/svg11.dtd">
<svg version="1.1" id="Capa_1" xmlns="http://www.w3.org/2000/svg" xmlns:xlink="http://www.w3.org/1999/xlink" x="0px" y="0px"
	 viewBox="0 0 297 297" style="enable-background:new 0 0 297 297;" xml:space="preserve">
<g>
	<path d="M287.116,60.536c5.458,0,9.884-4.425,9.884-9.883V18.037c0-5.458-4.426-9.883-9.884-9.883H9.884
		C4.426,8.154,0,12.579,0,18.037v32.616c0,5.458,4.426,9.883,9.884,9.883h6.424v175.927H9.884c-5.458,0-9.884,4.426-9.884,9.884
		v32.616c0,5.458,4.426,9.883,9.884,9.883h277.232c5.458,0,9.884-4.425,9.884-9.883v-32.616c0-5.458-4.426-9.884-9.884-9.884h-6.424
		v-45.625c4.632-0.818,8.153-4.855,8.153-9.723v-65.23c0-4.868-3.522-8.904-8.153-9.723V60.536H287.116z M19.767,27.921h257.467
		V40.77H19.767V27.921z M269.079,125.768v45.465h-45.465v-45.465H269.079z M182.845,236.463v-78.079h21.003v22.731
		c0,4.868,3.522,8.904,8.154,9.723v45.625H182.845z M133.922,236.463v-78.079h29.156v78.079H133.922z M84.998,236.463v-78.079
		h29.156v78.079H84.998z M114.154,60.536v78.08H84.998v-78.08H114.154z M163.078,60.536v78.08h-29.156v-78.08H163.078z
		 M212.002,106.162c-4.632,0.818-8.154,4.854-8.154,9.723v22.731h-21.003v-78.08h29.157V106.162z M65.231,60.536v78.08H36.075
		v-78.08H65.231z M36.075,158.384h29.156v78.079H36.075V158.384z M277.233,269.079H19.767V256.23h257.467V269.079z M231.769,236.463
		v-45.464h29.156v45.464H231.769z M260.925,106.001h-29.156V60.536h29.156V106.001z"/>
	<path d="M238.44,153.665v4.719c0,4.366,3.54,7.906,7.906,7.906c4.367,0,7.907-3.54,7.907-7.906v-4.719
		c3.003-2.354,4.941-6.005,4.941-10.106c0-7.085-5.764-12.849-12.849-12.849c-7.084,0-12.849,5.764-12.849,12.849
		C233.498,147.66,235.438,151.311,238.44,153.665z"/>
</g>
<g>
</g>
<g>
</g>
<g>
</g>
<g>
</g>
<g>
</g>
<g>
</g>
<g>
</g>
<g>
</g>
<g>
</g>
<g>
</g>
<g>
</g>
<g>
</g>
<g>
</g>
<g>
</g>
<g>
</g>
</svg>
