<?xml version="1.0" encoding="iso-8859-1"?>
<!-- Generator: Adobe Illustrator 18.0.0, SVG Export Plug-In . SVG Version: 6.00 Build 0)  -->
<!DOCTYPE svg PUBLIC "-//W3C//DTD SVG 1.1//EN" "http://www.w3.org/Graphics/SVG/1.1/DTD/svg11.dtd">
<svg version="1.1" id="Capa_1" xmlns="http://www.w3.org/2000/svg" xmlns:xlink="http://www.w3.org/1999/xlink" x="0px" y="0px"
	 viewBox="0 0 297 297" style="enable-background:new 0 0 297 297;" xml:space="preserve">
<path d="M34.345,57.077c-5.458,0-9.883,4.426-9.883,9.884s4.425,9.884,9.883,9.884h1.71l-24.709,61.771H9.884
	C4.426,138.616,0,143.042,0,148.5c0,32.427,26.381,58.807,58.807,58.807c32.427,0,58.808-26.38,58.808-58.807
	c0-5.458-4.426-9.884-9.884-9.884h-1.462L81.56,76.845h57.057v175.927h-22.731c-5.458,0-9.884,4.425-9.884,9.883
	c0,5.459,4.426,9.884,9.884,9.884h65.23c5.458,0,9.884-4.425,9.884-9.884c0-5.458-4.426-9.883-9.884-9.883h-22.731V76.845h57.057
	l-24.709,61.771h-1.462c-5.458,0-9.884,4.426-9.884,9.884c0,32.427,26.381,58.807,58.808,58.807
	c32.426,0,58.807-26.38,58.807-58.807c0-5.458-4.426-9.884-9.884-9.884h-1.462l-24.709-61.771h1.71c5.458,0,9.883-4.426,9.883-9.884
	s-4.425-9.884-9.883-9.884H158.384V34.346c0-5.459-4.426-9.884-9.884-9.884s-9.884,4.425-9.884,9.884v22.731H34.345z M58.807,187.54
	c-18.113,0-33.385-12.399-37.772-29.156h75.545C92.192,175.141,76.921,187.54,58.807,187.54z M84.978,138.616H32.636l24.709-61.771
	h2.925L84.978,138.616z M236.73,76.845h2.925l24.709,61.771h-52.342L236.73,76.845z M238.193,187.54
	c-18.114,0-33.386-12.399-37.773-29.156h75.545C271.578,175.141,256.307,187.54,238.193,187.54z"/>
<g>
</g>
<g>
</g>
<g>
</g>
<g>
</g>
<g>
</g>
<g>
</g>
<g>
</g>
<g>
</g>
<g>
</g>
<g>
</g>
<g>
</g>
<g>
</g>
<g>
</g>
<g>
</g>
<g>
</g>
</svg>
