<?xml version="1.0" encoding="iso-8859-1"?>
<!-- Generator: Adobe Illustrator 18.0.0, SVG Export Plug-In . SVG Version: 6.00 Build 0)  -->
<!DOCTYPE svg PUBLIC "-//W3C//DTD SVG 1.1//EN" "http://www.w3.org/Graphics/SVG/1.1/DTD/svg11.dtd">
<svg version="1.1" id="Capa_1" xmlns="http://www.w3.org/2000/svg" xmlns:xlink="http://www.w3.org/1999/xlink" x="0px" y="0px"
	 viewBox="0 0 297 297" style="enable-background:new 0 0 297 297;" xml:space="preserve">
<g>
	<path d="M190.038,26.161c-3.865-3.863-10.128-3.863-13.992,0L152.96,49.247c-1.43,1.43-2.328,3.19-2.699,5.034
		c-0.002,0.008-0.004,0.014-0.006,0.021l-0.004,0.021c-0.004,0.018-0.008,0.035-0.011,0.054l-10.942,54.704l-25.516,25.516
		l-4.547-4.547c-1.854-1.856-4.372-2.898-6.996-2.898c-2.624,0-5.141,1.042-6.996,2.897l-23.202,23.204
		c-3.864,3.863-3.864,10.128,0,13.992l4.547,4.547L2.899,245.48c-3.864,3.864-3.864,10.129,0,13.992l34.63,34.63
		c1.932,1.932,4.464,2.898,6.996,2.898s5.063-0.966,6.996-2.898L187.92,157.703l54.773-10.956c1.903-0.38,3.668-1.313,5.061-2.706
		l23.086-23.086c1.855-1.856,2.897-4.372,2.897-6.996s-1.042-5.14-2.897-6.996L190.038,26.161z M186.294,137.848l-27.142-27.142
		l6.88-34.396l54.657,54.657L186.294,137.848z M44.525,273.114l-20.639-20.638l124.525-124.525l20.639,20.638L44.525,273.114z
		 M240.758,123.052l-66.81-66.809l9.094-9.094l66.809,66.81L240.758,123.052z"/>
	<path d="M252.476,54.418c2.532,0,5.064-0.967,6.996-2.897l11.543-11.543c3.864-3.864,3.864-10.129,0-13.992
		c-3.864-3.863-10.127-3.863-13.992,0L245.48,37.529c-3.863,3.863-3.863,10.128,0,13.992
		C247.412,53.452,249.943,54.418,252.476,54.418z"/>
	<path d="M208.668,23.037c0.292,5.269,4.656,9.345,9.869,9.345c0.185,0,0.371-0.005,0.558-0.016
		c5.456-0.302,9.633-4.971,9.329-10.427l-0.699-12.593c-0.304-5.455-4.975-9.648-10.427-9.329c-5.456,0.302-9.633,4.971-9.33,10.427
		L208.668,23.037z"/>
	<path d="M287.654,69.276l-12.593-0.699c-5.453-0.305-10.125,3.874-10.427,9.329c-0.304,5.456,3.873,10.125,9.329,10.427l12.593,0.7
		c0.186,0.01,0.373,0.015,0.558,0.015c5.213,0,9.577-4.076,9.869-9.345C297.287,74.247,293.11,69.579,287.654,69.276z"/>
</g>
<g>
</g>
<g>
</g>
<g>
</g>
<g>
</g>
<g>
</g>
<g>
</g>
<g>
</g>
<g>
</g>
<g>
</g>
<g>
</g>
<g>
</g>
<g>
</g>
<g>
</g>
<g>
</g>
<g>
</g>
</svg>
