<?xml version="1.0" encoding="iso-8859-1"?>
<!-- Generator: Adobe Illustrator 18.0.0, SVG Export Plug-In . SVG Version: 6.00 Build 0)  -->
<!DOCTYPE svg PUBLIC "-//W3C//DTD SVG 1.1//EN" "http://www.w3.org/Graphics/SVG/1.1/DTD/svg11.dtd">
<svg version="1.1" id="Capa_1" xmlns="http://www.w3.org/2000/svg" xmlns:xlink="http://www.w3.org/1999/xlink" x="0px" y="0px"
	 viewBox="0 0 297 297" style="enable-background:new 0 0 297 297;" xml:space="preserve">
<g>
	<path d="M175.668,297c-10.913,0.002-21.373-6.869-25.435-16.706l-36.042-87.31c-0.613-1.484-1.861-2.37-3.34-2.37
		c-0.599,0-1.204,0.15-1.799,0.448l-37.099,18.55c-3.779,1.889-8.231,2.889-12.877,2.889c-8.001,0-15.625-2.824-20.92-7.747
		l-27.989-26.033c-8.475-7.881-12.106-22.104-8.446-33.085l6.643-19.928c2.836-8.51,10.045-14.009,18.366-14.009
		c4.229,0,8.44,1.413,12.18,4.087l25.683,18.371c0.948,0.68,1.884,0.821,2.502,0.821l0,0c1.435,0,2.727-0.702,3.543-1.927
		c0.04-0.061,0.081-0.121,0.123-0.18l19.186-27.387c-17.409-9.831-28.78-28.577-28.78-49.128C61.167,25.282,86.449,0,117.524,0
		c26.256,0,48.377,18.05,54.606,42.392l64.408-29.563c3.38-1.552,7.264-2.372,11.236-2.372c8.618,0,16.859,3.644,22.046,9.745
		l8.162,9.605c4.103,4.828,6.053,10.963,5.49,17.27c-0.563,6.31-3.569,12.002-8.464,16.029l-46.727,38.426
		c-3.979,3.274-7.988,11.233-8.251,16.379l-0.939,18.506c-0.045,0.88,0.151,1.594,0.551,2.014c0.441,0.466,1.13,0.564,1.628,0.564
		c0.177,0,0.365-0.012,0.558-0.036l7.749-0.974c3.716-0.468,8.1-4.525,8.851-8.192l1.779-8.691
		c2.212-10.792,11.396-18.328,22.336-18.328c1.995,0,3.997,0.26,5.949,0.775l9.624,2.539c12.201,3.22,20.385,15.956,18.238,28.393
		l-8.198,47.54c-2.019,11.703-12.822,22.086-24.597,23.638l-54.07,7.131c-1.441,0.189-2.253,0.94-2.68,1.536
		c-0.428,0.597-0.878,1.606-0.597,3.033l1.55,7.837c0.571,2.887,3.724,5.319,6.732,5.029l32.323-3.007
		c0.727-0.067,1.468-0.103,2.199-0.103c12.216,0,22.459,9.145,23.827,21.274l0.892,7.93c1.423,12.643-7.604,24.764-20.122,27.021
		l-73.541,13.27C178.639,296.869,177.156,297,175.668,297z M110.852,171.671c9.134,0,17.317,5.528,20.849,14.084l36.043,87.31
		c1.117,2.708,4.746,4.994,7.924,4.993c0.362,0,0.715-0.03,1.043-0.089l73.541-13.27c2.802-0.507,4.979-3.431,4.66-6.26
		l-0.893-7.929c-0.292-2.6-2.783-4.682-5.446-4.432l-32.323,3.007c-0.732,0.068-1.48,0.103-2.22,0.103
		c-11.876,0-22.56-8.734-24.85-20.318l-1.551-7.838c-1.245-6.304,0.1-12.605,3.788-17.748c3.688-5.143,9.227-8.436,15.597-9.275
		l54.07-7.131c3.621-0.477,7.784-4.479,8.405-8.078l8.197-47.539c0.492-2.85-1.606-6.118-4.404-6.855l-9.623-2.539
		c-0.375-0.1-0.752-0.15-1.116-0.15c-1.556,0-3.327,0.986-3.777,3.188l-1.779,8.69c-2.403,11.728-13.171,21.694-25.048,23.188
		l-7.75,0.974c-0.973,0.121-1.954,0.184-2.918,0.184c-5.948,0-11.402-2.293-15.359-6.456c-4.012-4.222-6.05-9.911-5.738-16.025
		l0.939-18.506c0.533-10.471,7.04-23.389,15.137-30.049l46.727-38.427c1.272-1.045,1.565-2.379,1.629-3.081
		c0.063-0.701,0.008-2.065-1.059-3.318l-8.162-9.607c-1.559-1.834-4.617-3.068-7.609-3.068c-1.264,0-2.416,0.224-3.335,0.645
		l-76.08,34.92c-2.933,1.346-6.349,1.104-9.064-0.635c-2.716-1.741-4.357-4.747-4.357-7.973c0-20.63-16.784-37.414-37.414-37.414
		c-20.63,0-37.413,16.784-37.413,37.414c0,16.528,11.076,31.296,26.936,35.915c2.933,0.854,5.273,3.07,6.287,5.951
		c1.014,2.882,0.574,6.076-1.178,8.577l-25.824,36.862c-4.333,6.427-11.515,10.26-19.235,10.26c-0.001,0-0.001,0-0.002,0
		c-4.862-0.001-9.538-1.508-13.522-4.357L27.89,131.193c-0.506-0.361-0.856-0.486-1.03-0.529c-0.116,0.138-0.326,0.444-0.523,1.033
		l-6.643,19.929c-1.295,3.884,0.377,10.435,3.376,13.225l27.989,26.031c1.747,1.626,4.896,2.676,8.018,2.676
		c1.696,0,3.26-0.316,4.407-0.889l37.098-18.551C103.831,172.495,107.286,171.671,110.852,171.671z"/>
</g>
<g>
</g>
<g>
</g>
<g>
</g>
<g>
</g>
<g>
</g>
<g>
</g>
<g>
</g>
<g>
</g>
<g>
</g>
<g>
</g>
<g>
</g>
<g>
</g>
<g>
</g>
<g>
</g>
<g>
</g>
</svg>
