<?xml version="1.0" encoding="iso-8859-1"?>
<!-- Generator: Adobe Illustrator 18.0.0, SVG Export Plug-In . SVG Version: 6.00 Build 0)  -->
<!DOCTYPE svg PUBLIC "-//W3C//DTD SVG 1.1//EN" "http://www.w3.org/Graphics/SVG/1.1/DTD/svg11.dtd">
<svg version="1.1" id="Capa_1" xmlns="http://www.w3.org/2000/svg" xmlns:xlink="http://www.w3.org/1999/xlink" x="0px" y="0px"
	 viewBox="0 0 297 297" style="enable-background:new 0 0 297 297;" xml:space="preserve">
<g>
	<path d="M96.544,71.729h10.388c4.448,0,8.054-3.606,8.054-8.055c0-4.447-3.605-8.054-8.054-8.054H96.544
		c-4.448,0-8.054,3.606-8.054,8.054C88.49,68.123,92.096,71.729,96.544,71.729z"/>
	<path d="M111.622,38.105c1.573,1.578,3.638,2.366,5.702,2.366c2.058,0,4.116-0.783,5.688-2.352c3.149-3.141,3.156-8.24,0.015-11.39
		l-5.194-5.208c-3.142-3.15-8.241-3.157-11.39-0.016c-3.149,3.142-3.156,8.241-0.015,11.391L111.622,38.105z"/>
	<path d="M179.678,40.472c2.064,0,4.129-0.789,5.702-2.366l5.194-5.208c3.142-3.149,3.135-8.249-0.015-11.391
		c-3.148-3.141-8.248-3.134-11.39,0.016l-5.194,5.208c-3.142,3.149-3.135,8.249,0.015,11.39
		C175.563,39.688,177.62,40.472,179.678,40.472z"/>
	<path d="M182.017,63.675c0,4.448,3.605,8.055,8.054,8.055h10.389c4.448,0,8.054-3.606,8.054-8.055c0-4.447-3.605-8.054-8.054-8.054
		H190.07C185.622,55.621,182.017,59.228,182.017,63.675z"/>
	<path d="M148.501,30.054c4.447,0,8.054-3.606,8.054-8.054V11.58c0-4.447-3.607-8.054-8.054-8.054c-4.447,0-8.054,3.606-8.054,8.054
		V22C140.447,26.447,144.054,30.054,148.501,30.054z"/>
	<path d="M259.121,153.308l-24.748-49.52c-5.947-11.901-20.467-20.877-33.771-20.877h-23.06V63.364
		c0-16.198-13.027-29.376-29.041-29.376c-16.013,0-29.04,13.178-29.04,29.376v19.547H96.398c-13.305,0-27.824,8.976-33.771,20.877
		l-24.745,49.52C16.24,158.095,0,177.421,0,200.481v10.045c0,21.882,14.625,40.403,34.61,46.33v9.436
		c0,14.987,12.194,27.182,27.183,27.182h17.682c14.988,0,27.182-12.194,27.182-27.182v-7.441h83.688v7.441
		c0,14.987,12.193,27.182,27.182,27.182h17.682c14.988,0,27.183-12.194,27.183-27.182v-9.436c19.985-5.927,34.61-24.448,34.61-46.33
		v-10.045C297,177.422,280.762,158.097,259.121,153.308z M135.568,63.364c0-7.316,5.802-13.269,12.933-13.269
		c7.132,0,12.934,5.952,12.934,13.269v19.547h-25.866V63.364z M80.639,112.788c2.502-5.007,10.161-9.742,15.76-9.742h104.203
		c5.599,0,13.258,4.735,15.76,9.743l19.675,39.369H60.964L80.639,112.788z M86.521,266.292c0,3.819-3.228,7.047-7.047,7.047H61.793
		c-3.82,0-7.048-3.228-7.048-7.047v-7.441h31.776V266.292z M235.207,273.339h-17.682c-3.819,0-7.047-3.228-7.047-7.047v-7.441
		h31.776v7.441C242.255,270.111,239.027,273.339,235.207,273.339z M276.865,210.526c0,15.544-12.646,28.188-28.188,28.188H48.323
		c-15.543,0-28.188-12.645-28.188-28.188v-10.045c0-15.543,12.646-28.188,28.188-28.188h200.354
		c15.543,0,28.188,12.646,28.188,28.188V210.526z"/>
	<path d="M249.388,186.121h-42.579c-6.061,0-10.99,4.93-10.99,10.989v18.36c0,6.061,4.93,10.991,10.99,10.991h42.579
		c6.06,0,10.989-4.93,10.989-10.991v-18.36C260.377,191.051,255.447,186.121,249.388,186.121z M244.27,210.355h-32.343v-8.126
		h32.343V210.355z"/>
	<path d="M90.192,186.121H47.613c-6.06,0-10.989,4.93-10.989,10.989v18.36c0,6.061,4.93,10.991,10.989,10.991h42.579
		c6.061,0,10.991-4.93,10.991-10.991v-18.36C101.184,191.051,96.253,186.121,90.192,186.121z M85.075,210.355H52.731v-8.126h32.344
		V210.355z"/>
</g>
<g>
</g>
<g>
</g>
<g>
</g>
<g>
</g>
<g>
</g>
<g>
</g>
<g>
</g>
<g>
</g>
<g>
</g>
<g>
</g>
<g>
</g>
<g>
</g>
<g>
</g>
<g>
</g>
<g>
</g>
</svg>
