<?xml version="1.0" encoding="iso-8859-1"?>
<!-- Generator: Adobe Illustrator 18.0.0, SVG Export Plug-In . SVG Version: 6.00 Build 0)  -->
<!DOCTYPE svg PUBLIC "-//W3C//DTD SVG 1.1//EN" "http://www.w3.org/Graphics/SVG/1.1/DTD/svg11.dtd">
<svg version="1.1" id="Capa_1" xmlns="http://www.w3.org/2000/svg" xmlns:xlink="http://www.w3.org/1999/xlink" x="0px" y="0px"
	 viewBox="0 0 297 297" style="enable-background:new 0 0 297 297;" xml:space="preserve">
<g>
	<path d="M246.347,297c5.458,0,9.884-4.426,9.884-9.884V9.884c0-5.458-4.426-9.884-9.884-9.884H50.653
		c-5.458,0-9.884,4.426-9.884,9.884v277.232c0,5.458,4.426,9.884,9.884,9.884H246.347z M236.464,19.768v45.464H60.536V19.768
		H236.464z M142.075,277.232v-29.156h12.849v29.156H142.075z M174.691,277.232v-39.039c0-5.459-4.426-9.884-9.884-9.884h-32.615
		c-5.458,0-9.884,4.425-9.884,9.884v39.039H60.536V84.998h175.928v192.234H174.691z"/>
	<path d="M72.542,58.583c1.336,0,2.514-0.515,3.403-1.486c0.854-0.936,1.287-2.217,1.287-3.81v-5.634h3.012
		c3.8,0,6.762-0.868,8.805-2.579c2.149-1.798,3.239-4.402,3.239-7.742c0-1.53-0.259-2.946-0.768-4.208
		c-0.529-1.307-1.318-2.43-2.347-3.342c-1.025-0.907-2.247-1.562-3.619-1.942c-1.304-0.373-3.041-0.553-5.311-0.553h-6.987
		c-1.709,0-3.045,0.438-3.971,1.302c-0.964,0.899-1.454,2.25-1.454,4.013v20.723c0,1.576,0.425,2.845,1.259,3.77
		C69.969,58.067,71.161,58.583,72.542,58.583z M77.232,39.592V35.33h1.691c2.756,0,3.376,0.564,3.378,0.564
		c0.221,0.235,0.514,0.652,0.514,1.548c0,0.381-0.051,0.901-0.291,1.226c-0.198,0.269-0.517,0.468-0.971,0.609
		c-0.667,0.208-1.552,0.313-2.63,0.313H77.232z"/>
	<path d="M99.273,54.041c1.307,1.452,2.95,2.59,4.883,3.377c1.892,0.773,4.043,1.165,6.396,1.165c2.358,0,4.502-0.381,6.369-1.133
		c1.91-0.771,3.55-1.904,4.873-3.372c1.304-1.445,2.293-3.168,2.939-5.122c0.626-1.894,0.943-4.008,0.943-6.287
		c0-3.104-0.587-5.869-1.744-8.218c-1.2-2.437-2.995-4.345-5.338-5.671c-2.292-1.296-5.034-1.952-8.153-1.952
		c-2.293,0-4.39,0.371-6.232,1.104c-1.883,0.75-3.505,1.85-4.823,3.268c-1.31,1.408-2.317,3.126-2.997,5.104
		c-0.662,1.923-0.998,4.052-0.998,6.329c0,2.22,0.32,4.321,0.95,6.243C96.994,50.868,97.98,52.606,99.273,54.041z M110.442,35.109
		c1.16,0,2.146,0.265,3.012,0.808c0.845,0.529,1.487,1.313,1.965,2.396c0.521,1.185,0.786,2.639,0.786,4.32
		c0,1.82-0.284,3.344-0.845,4.525c-0.524,1.104-1.184,1.881-2.015,2.377c-0.863,0.516-1.789,0.767-2.83,0.767
		c-0.816,0-1.535-0.143-2.197-0.436c-0.646-0.286-1.212-0.716-1.726-1.31c-0.521-0.604-0.938-1.399-1.239-2.369
		c-0.324-1.036-0.488-2.231-0.488-3.555c0-1.309,0.163-2.486,0.486-3.504c0.302-0.958,0.704-1.735,1.195-2.311
		c0.478-0.56,1.026-0.972,1.683-1.264C108.902,35.256,109.626,35.109,110.442,35.109z"/>
	<path d="M135.343,58.125h13.148c1.382,0,2.507-0.373,3.345-1.109c0.893-0.789,1.364-1.856,1.364-3.087
		c0-1.207-0.468-2.271-1.352-3.076c-0.844-0.767-1.974-1.156-3.357-1.156h-9.063V32.105c0-1.624-0.435-2.913-1.292-3.833
		c-0.881-0.945-2.069-1.444-3.436-1.444c-1.369,0-2.553,0.513-3.42,1.478c-0.831,0.922-1.252,2.2-1.252,3.8v20.705
		c0,1.709,0.454,3.034,1.351,3.938C132.28,57.661,133.614,58.125,135.343,58.125z"/>
	<path d="M161.472,58.583c1.372,0,2.563-0.506,3.442-1.461c0.854-0.925,1.285-2.216,1.285-3.835V32.105
		c0-1.624-0.435-2.913-1.292-3.833c-0.881-0.945-2.069-1.444-3.436-1.444c-1.351,0-2.528,0.509-3.403,1.471
		c-0.842,0.921-1.269,2.203-1.269,3.807v21.182c0,1.603,0.43,2.887,1.276,3.816C158.959,58.071,160.134,58.583,161.472,58.583z"/>
	<path d="M172.725,50.72c0.569,1.191,1.271,2.284,2.095,3.265c0.927,1.084,1.97,1.978,3.101,2.658
		c1.124,0.674,2.381,1.174,3.734,1.486c1.304,0.302,2.756,0.454,4.314,0.454c2.127,0,4.041-0.355,5.688-1.057
		c1.65-0.703,3.039-1.645,4.131-2.801c1.061-1.127,1.858-2.31,2.373-3.521c0.521-1.238,0.787-2.432,0.787-3.547
		c0-1.205-0.446-2.277-1.296-3.105c-0.834-0.81-1.887-1.237-3.046-1.237c-1.748,0-2.717,0.787-3.219,1.442
		c-0.477,0.622-0.872,1.403-1.15,2.258c-0.415,1.133-0.985,1.948-1.746,2.493c-0.743,0.534-1.664,0.794-2.816,0.794
		c-1.07,0-1.958-0.234-2.717-0.718c-0.735-0.469-1.303-1.191-1.734-2.212c-0.48-1.135-0.724-2.631-0.724-4.446
		c0-2.664,0.528-4.691,1.57-6.026c0.953-1.222,2.157-1.79,3.788-1.79c1.006,0,1.8,0.211,2.429,0.643
		c0.69,0.475,1.322,1.244,1.876,2.286c0.543,1.022,1.036,1.726,1.551,2.213c0.726,0.689,1.711,1.039,2.929,1.039
		c1.179,0,2.232-0.468,3.048-1.352c0.775-0.84,1.185-1.873,1.185-2.991c0-1.548-0.579-3.151-1.721-4.766
		c-1.087-1.533-2.641-2.823-4.62-3.835c-1.974-1.008-4.231-1.519-6.712-1.519c-2.029,0-3.975,0.369-5.783,1.098
		c-1.829,0.737-3.448,1.828-4.81,3.239c-1.358,1.408-2.414,3.117-3.138,5.082c-0.707,1.923-1.065,4.108-1.065,6.495
		c0,1.465,0.141,2.873,0.419,4.186C171.727,48.266,172.157,49.542,172.725,50.72z"/>
	<path d="M208.96,58.125h14.8c1.361,0,2.462-0.376,3.27-1.115c0.846-0.774,1.293-1.814,1.293-3.008c0-1.217-0.447-2.27-1.293-3.044
		c-0.808-0.739-1.908-1.114-3.27-1.114h-10.714v-3.694h9.32c1.366,0,2.456-0.379,3.233-1.123c0.797-0.759,1.219-1.771,1.219-2.926
		c0-1.17-0.436-2.186-1.262-2.94c-0.783-0.711-1.856-1.072-3.19-1.072h-9.32v-2.648h10.292c1.375,0,2.476-0.369,3.263-1.092
		c0.838-0.761,1.281-1.797,1.281-2.993c0-1.183-0.441-2.211-1.277-2.974c-0.795-0.727-1.894-1.094-3.267-1.094H208.96
		c-1.069,0-1.96,0.17-2.717,0.518c-0.919,0.418-1.632,1.124-2.062,2.041c-0.361,0.769-0.536,1.67-0.536,2.756v20.209
		c0,1.709,0.455,3.034,1.351,3.938C205.897,57.661,207.231,58.125,208.96,58.125z"/>
	<path d="M115.885,163.078H83.269c-5.458,0-9.884,4.426-9.884,9.884v32.615c0,5.458,4.426,9.884,9.884,9.884h32.616
		c5.458,0,9.883-4.426,9.883-9.884v-32.615C125.768,167.504,121.343,163.078,115.885,163.078z M106.001,195.693H93.152v-12.848
		h12.849V195.693z"/>
	<path d="M213.731,163.078h-32.616c-5.458,0-9.883,4.426-9.883,9.884v32.615c0,5.458,4.425,9.884,9.883,9.884h32.616
		c5.458,0,9.884-4.426,9.884-9.884v-32.615C223.615,167.504,219.189,163.078,213.731,163.078z M203.848,195.693h-12.849v-12.848
		h12.849V195.693z"/>
	<path d="M115.885,97.6H83.269c-5.458,0-9.884,4.426-9.884,9.884v32.615c0,5.458,4.426,9.884,9.884,9.884h32.616
		c5.458,0,9.883-4.426,9.883-9.884v-32.615C125.768,102.025,121.343,97.6,115.885,97.6z M106.001,130.216H93.152v-12.849h12.849
		V130.216z"/>
	<path d="M213.731,97.6h-32.616c-5.458,0-9.883,4.426-9.883,9.884v32.615c0,5.458,4.425,9.884,9.883,9.884h32.616
		c5.458,0,9.884-4.426,9.884-9.884v-32.615C223.615,102.025,219.189,97.6,213.731,97.6z M203.848,130.216h-12.849v-12.849h12.849
		V130.216z"/>
</g>
<g>
</g>
<g>
</g>
<g>
</g>
<g>
</g>
<g>
</g>
<g>
</g>
<g>
</g>
<g>
</g>
<g>
</g>
<g>
</g>
<g>
</g>
<g>
</g>
<g>
</g>
<g>
</g>
<g>
</g>
</svg>
