<?xml version="1.0" encoding="iso-8859-1"?>
<!-- Generator: Adobe Illustrator 18.0.0, SVG Export Plug-In . SVG Version: 6.00 Build 0)  -->
<!DOCTYPE svg PUBLIC "-//W3C//DTD SVG 1.1//EN" "http://www.w3.org/Graphics/SVG/1.1/DTD/svg11.dtd">
<svg version="1.1" id="Capa_1" xmlns="http://www.w3.org/2000/svg" xmlns:xlink="http://www.w3.org/1999/xlink" x="0px" y="0px"
	 viewBox="0 0 297 297" style="enable-background:new 0 0 297 297;" xml:space="preserve">
<g>
	<path d="M213.731,65.231h-87.631c3.043-1.686,5.104-4.925,5.104-8.648c0-5.458-4.426-9.884-9.883-9.884h-6.426V9.884
		c0-5.458-4.424-9.884-9.883-9.884c-5.457,0-9.883,4.426-9.883,9.884v36.815h-6.424c-5.459,0-9.885,4.426-9.885,9.884
		c0,3.724,2.061,6.963,5.104,8.648h-0.656c-5.457,0-9.883,4.425-9.883,9.884v81.539c0,5.458,4.426,9.883,9.883,9.883h6.426v120.579
		c0,5.458,4.424,9.884,9.883,9.884h97.848c5.457,0,9.883-4.426,9.883-9.884V166.537h6.424c5.459,0,9.883-4.425,9.883-9.883V75.115
		C223.614,69.656,219.19,65.231,213.731,65.231z M203.849,146.77H93.153V84.998h110.695V146.77z M187.54,277.233h-78.08V166.537
		h78.08V277.233z"/>
	<path d="M115.886,112.919h65.23c4.367,0,7.906-3.54,7.906-7.906c0-4.366-3.539-7.907-7.906-7.907h-65.23
		c-4.367,0-7.908,3.541-7.908,7.907C107.978,109.379,111.519,112.919,115.886,112.919z"/>
	<path d="M115.886,135.157h65.23c4.367,0,7.906-3.54,7.906-7.907c0-4.366-3.539-7.906-7.906-7.906h-65.23
		c-4.367,0-7.908,3.54-7.908,7.906C107.978,131.617,111.519,135.157,115.886,135.157z"/>
	<path d="M132.192,262.407h32.615c4.367,0,7.908-3.54,7.908-7.906c0-4.366-3.541-7.907-7.908-7.907h-32.615
		c-4.367,0-7.906,3.541-7.906,7.907C124.286,258.867,127.825,262.407,132.192,262.407z"/>
</g>
<g>
</g>
<g>
</g>
<g>
</g>
<g>
</g>
<g>
</g>
<g>
</g>
<g>
</g>
<g>
</g>
<g>
</g>
<g>
</g>
<g>
</g>
<g>
</g>
<g>
</g>
<g>
</g>
<g>
</g>
</svg>
