<?xml version="1.0" encoding="iso-8859-1"?>
<!-- Generator: Adobe Illustrator 18.0.0, SVG Export Plug-In . SVG Version: 6.00 Build 0)  -->
<!DOCTYPE svg PUBLIC "-//W3C//DTD SVG 1.1//EN" "http://www.w3.org/Graphics/SVG/1.1/DTD/svg11.dtd">
<svg version="1.1" id="Capa_1" xmlns="http://www.w3.org/2000/svg" xmlns:xlink="http://www.w3.org/1999/xlink" x="0px" y="0px"
	 viewBox="0 0 297 297" style="enable-background:new 0 0 297 297;" xml:space="preserve">
<g>
	<path d="M282.205,136.128c-15.258-16.075-56.745-68.111-56.745-68.111c-0.195-0.234-0.4-0.46-0.616-0.676
		c-0.616-0.616-6.257-6.095-14.762-8.931c-12.186-4.061-24.308-0.891-34.127,8.931c-3.945,3.944-3.945,10.341,0.001,14.285
		c3.944,3.946,10.342,3.945,14.286-0.001c5.509-5.509,9.837-5.136,12.991-4.192c3.567,1.065,6.343,3.333,7.109,4.003l32.517,39.029
		c-4.214-0.45-8.636-0.691-13.288-0.691c-14.898,0-30.302,0-42.605,4.102c-0.411,0.138-0.797,0.297-1.2,0.443
		c-1.848-2.027-4.501-3.308-7.46-3.308h-59.615c-2.959,0-5.612,1.28-7.46,3.308c-0.402-0.146-0.787-0.306-1.198-0.443
		c-12.304-4.102-27.708-4.102-42.604-4.102c-4.652,0-9.074,0.241-13.288,0.691l32.502-39.012c0.842-0.735,3.594-2.967,7.123-4.021
		c3.155-0.943,7.481-1.316,12.991,4.192c3.944,3.946,10.342,3.946,14.286,0.001c3.945-3.944,3.946-10.341,0.001-14.285
		c-9.82-9.822-21.939-12.995-34.126-8.931c-8.505,2.836-14.146,8.314-14.762,8.931c-0.216,0.216-0.421,0.441-0.616,0.676
		c0,0-41.487,52.036-56.745,68.111C5.739,145.67,0,157.464,0,172.877C0,189.87,4.42,205.86,12.446,217.9
		c9.634,14.454,24.071,22.415,40.649,22.415c27.445,0,47.736-18.686,59.925-34.36c12.447-16.006,21.833-36.388,21.833-47.411
		c0-6.564-1.248-12.361-3.678-17.328h34.648c-2.43,4.967-3.678,10.764-3.678,17.328c0,11.023,9.386,31.405,21.832,47.411
		c12.189,15.675,32.479,34.36,59.924,34.36c16.579,0,31.017-7.961,40.651-22.415C292.58,205.86,297,189.871,297,172.877
		C297,157.464,291.261,145.67,282.205,136.128z M97.071,193.552c-9.421,12.115-24.699,26.559-43.976,26.559
		c-22.6,0-32.892-24.485-32.892-47.233c0-21.831,15.889-32.9,47.225-32.9c35.431,0,47.221,2.684,47.221,18.566
		C114.649,162.073,109.421,177.672,97.071,193.552z M243.902,220.111c-19.276,0-34.554-14.443-43.975-26.559
		c-12.349-15.88-17.577-31.479-17.577-35.009c0-15.882,11.79-18.566,47.221-18.566c31.336,0,47.225,11.068,47.225,32.9
		C276.796,195.625,266.503,220.111,243.902,220.111z"/>
	<path d="M64.498,151.1c-2.564-2.564-6.722-2.564-9.287,0l-16.668,16.668c-2.564,2.565-2.564,6.723,0,9.287
		c1.282,1.282,2.963,1.923,4.644,1.923c1.68,0,3.36-0.641,4.644-1.923l16.668-16.668C67.063,157.822,67.063,153.664,64.498,151.1z"
		/>
	<path d="M67.333,165.242l-16.668,16.669c-2.564,2.565-2.564,6.722,0,9.287c1.282,1.281,2.964,1.923,4.644,1.923
		c1.68,0,3.361-0.642,4.643-1.923L76.62,174.53c2.564-2.564,2.564-6.722,0-9.287C74.056,162.68,69.898,162.68,67.333,165.242z"/>
	<path d="M236.485,151.1c-2.564-2.564-6.723-2.564-9.287,0l-16.668,16.668c-2.564,2.565-2.564,6.723,0,9.287
		c1.282,1.282,2.963,1.923,4.643,1.923c1.68,0,3.36-0.641,4.644-1.923l16.668-16.668C239.05,157.822,239.05,153.664,236.485,151.1z"
		/>
	<path d="M239.32,165.242l-16.668,16.669c-2.564,2.565-2.564,6.722,0,9.287c1.282,1.281,2.964,1.923,4.644,1.923
		s3.361-0.642,4.644-1.923l16.668-16.669c2.564-2.564,2.564-6.722,0-9.287C246.043,162.68,241.886,162.68,239.32,165.242z"/>
</g>
<g>
</g>
<g>
</g>
<g>
</g>
<g>
</g>
<g>
</g>
<g>
</g>
<g>
</g>
<g>
</g>
<g>
</g>
<g>
</g>
<g>
</g>
<g>
</g>
<g>
</g>
<g>
</g>
<g>
</g>
</svg>
