<?xml version="1.0" encoding="iso-8859-1"?>
<!-- Generator: Adobe Illustrator 18.0.0, SVG Export Plug-In . SVG Version: 6.00 Build 0)  -->
<!DOCTYPE svg PUBLIC "-//W3C//DTD SVG 1.1//EN" "http://www.w3.org/Graphics/SVG/1.1/DTD/svg11.dtd">
<svg version="1.1" id="Capa_1" xmlns="http://www.w3.org/2000/svg" xmlns:xlink="http://www.w3.org/1999/xlink" x="0px" y="0px"
	 viewBox="0 0 297 297" style="enable-background:new 0 0 297 297;" xml:space="preserve">
<g>
	<path d="M247.655,160.619c-2.357,0-4.577,0.605-6.514,1.666l-17.141-3.477l-8.714-15.537c0.516-1.443,0.811-2.99,0.811-4.609
		c0-7.561-6.124-13.712-13.651-13.712c-7.523,0-13.645,6.151-13.645,13.712c0,1.617,0.295,3.162,0.809,4.605l-8.714,15.543
		l-17.749,3.6c-1.611-0.673-3.375-1.049-5.226-1.049c-7.525,0-13.647,6.152-13.647,13.714c0,7.39,5.853,13.416,13.143,13.686
		l10.188,11.142l-2.059,17.912c-3.756,2.445-6.252,6.684-6.252,11.506c0,7.562,6.124,13.714,13.651,13.714
		c6.312,0,11.621-4.334,13.174-10.191l16.327-7.512l16.331,7.512c1.554,5.857,6.863,10.191,13.175,10.191
		c7.525,0,13.648-6.152,13.648-13.714c0-4.82-2.495-9.061-6.25-11.506l-2.062-17.912l10.866-11.881
		c7.293-0.269,13.147-6.296,13.147-13.688C261.304,166.771,255.181,160.619,247.655,160.619z M202.446,204.323
		c-1.427,0-2.854,0.306-4.18,0.915l-11.765,5.413l1.493-12.993c0.33-2.876-0.602-5.754-2.555-7.89l-8.851-9.679l12.776-2.591
		c2.853-0.579,5.311-2.372,6.734-4.911l6.348-11.322l6.352,11.324c1.423,2.538,3.882,4.33,6.733,4.909l12.774,2.591l-8.851,9.678
		c-1.954,2.137-2.887,5.016-2.556,7.893l1.495,12.992l-11.77-5.414C205.299,204.628,203.873,204.323,202.446,204.323z"/>
	<path d="M115.499,146.5h-66c-5.522,0-10,4.477-10,10s4.478,10,10,10h66c5.522,0,10-4.477,10-10S121.021,146.5,115.499,146.5z"/>
	<path d="M115.499,179.5h-66c-5.522,0-10,4.477-10,10s4.478,10,10,10h66c5.522,0,10-4.477,10-10S121.021,179.5,115.499,179.5z"/>
	<path d="M115.499,212.5h-66c-5.522,0-10,4.477-10,10s4.478,10,10,10h66c5.522,0,10-4.477,10-10S121.021,212.5,115.499,212.5z"/>
	<path d="M266,72.5h-49.751v-23c0-5.522-4.477-10-10-10h-15.924c-4.519-18.904-21.558-33-41.826-33
		c-20.268,0-37.308,14.096-41.826,33H90.749c-5.522,0-10,4.478-10,10v23H31c-17.094,0-31,13.906-31,31v156c0,17.094,13.906,31,31,31
		h235c17.094,0,31-13.906,31-31v-156C297,86.406,283.094,72.5,266,72.5z M100.749,59.5h14.75c5.522,0,10-4.478,10-10
		c0-12.683,10.317-23,23-23s23,10.317,23,23c0,5.522,4.478,10,10,10h14.75V89h-95.5V59.5z M277,259.5c0,6.065-4.935,11-11,11H31
		c-6.065,0-11-4.935-11-11v-156c0-6.065,4.935-11,11-11h49.749V99c0,5.522,4.478,10,10,10h115.5c5.523,0,10-4.478,10-10v-6.5H266
		c6.065,0,11,4.935,11,11V259.5z"/>
	<circle cx="148.499" cy="49.5" r="8.084"/>
</g>
<g>
</g>
<g>
</g>
<g>
</g>
<g>
</g>
<g>
</g>
<g>
</g>
<g>
</g>
<g>
</g>
<g>
</g>
<g>
</g>
<g>
</g>
<g>
</g>
<g>
</g>
<g>
</g>
<g>
</g>
</svg>
