<?xml version="1.0" encoding="iso-8859-1"?>
<!-- Generator: Adobe Illustrator 18.0.0, SVG Export Plug-In . SVG Version: 6.00 Build 0)  -->
<!DOCTYPE svg PUBLIC "-//W3C//DTD SVG 1.1//EN" "http://www.w3.org/Graphics/SVG/1.1/DTD/svg11.dtd">
<svg version="1.1" id="Capa_1" xmlns="http://www.w3.org/2000/svg" xmlns:xlink="http://www.w3.org/1999/xlink" x="0px" y="0px"
	 viewBox="0 0 297 297" style="enable-background:new 0 0 297 297;" xml:space="preserve">
<path d="M0,99.363l0,78.62c0,5.698,4.62,10.317,10.317,10.317h13.42l38.398,73.102c1.782,3.393,5.3,5.519,9.134,5.519h56.979
	c3.612,0,6.962-1.889,8.83-4.981c1.868-3.092,1.984-6.936,0.305-10.134l-33.221-63.244c121.099,4.032,174.749,55.218,175.298,55.755
	c1.968,1.929,4.574,2.949,7.225,2.949c1.347,0,2.703-0.263,3.993-0.805c3.83-1.609,6.321-5.358,6.321-9.512V40.397
	c0-4.154-2.491-7.903-6.321-9.513c-3.828-1.609-8.251-0.765-11.218,2.144c-0.12,0.115-14.807,14.135-45.453,27.972
	C205.671,73.793,157.5,89.045,88.938,89.045H10.317C4.62,89.045,0,93.665,0,99.363z M20.635,167.667V109.68h57.986v57.986H20.635z
	 M276.366,216.002c-26.432-17.618-83.493-46.245-177.11-48.227v-58.204c93.617-1.981,150.679-30.608,177.11-48.227V216.002z
	 M47.046,188.3h33.672l30.458,57.987H77.504L47.046,188.3z"/>
<g>
</g>
<g>
</g>
<g>
</g>
<g>
</g>
<g>
</g>
<g>
</g>
<g>
</g>
<g>
</g>
<g>
</g>
<g>
</g>
<g>
</g>
<g>
</g>
<g>
</g>
<g>
</g>
<g>
</g>
</svg>
