<?xml version="1.0" encoding="iso-8859-1"?>
<!-- Generator: Adobe Illustrator 18.0.0, SVG Export Plug-In . SVG Version: 6.00 Build 0)  -->
<!DOCTYPE svg PUBLIC "-//W3C//DTD SVG 1.1//EN" "http://www.w3.org/Graphics/SVG/1.1/DTD/svg11.dtd">
<svg version="1.1" id="Capa_1" xmlns="http://www.w3.org/2000/svg" xmlns:xlink="http://www.w3.org/1999/xlink" x="0px" y="0px"
	 viewBox="0 0 297.001 297.001" style="enable-background:new 0 0 297.001 297.001;" xml:space="preserve">
<g>
	<path d="M296.407,108.939c-1.997-10.381-8.837-17.764-17.85-19.267c-44.83-7.479-67.004-20.646-84.732-50.317
		c-1.816-3.041-5.098-4.902-8.641-4.902h-73.368c-3.543,0-6.824,1.861-8.641,4.902C85.446,69.027,63.273,82.194,18.444,89.672
		c-9.013,1.503-15.853,8.886-17.851,19.267c-2.706,14.071,3.383,34.488,27.782,51.227v22.554c-2.992,1.743-5.008,4.979-5.008,8.692
		c0,19.243,14.205,37.971,38.974,51.377c23.539,12.742,54.139,19.76,86.159,19.76c32.022,0,62.622-7.018,86.161-19.76
		c24.767-13.406,38.972-32.134,38.972-51.377c0-3.713-2.016-6.949-5.008-8.692v-22.554
		C293.024,143.427,299.114,123.011,296.407,108.939z M48.508,164.754h199.986v16.591H48.508V164.754z M21.833,109.515
		c47.831-7.989,75.187-23.573,95.569-54.932h62.196c20.382,31.358,47.738,46.941,95.569,54.932c0.466,0.316,1.624,2.056,1.693,5.437
		c0.155,7.687-5.392,19.343-21.203,29.671H41.344c-15.812-10.329-21.359-21.986-21.203-29.673
		C20.209,111.57,21.368,109.83,21.833,109.515z M148.501,242.417c-51.792,0-92.302-20.001-102.508-40.94h205.016
		C240.803,222.416,200.293,242.417,148.501,242.417z"/>
	<path d="M148.501,130.946c14.708,0,26.674-11.966,26.674-26.675c0-14.708-11.966-26.674-26.674-26.674
		c-14.708,0-26.674,11.966-26.674,26.674C121.827,118.98,133.793,130.946,148.501,130.946z M148.501,97.729
		c3.607,0,6.543,2.935,6.543,6.542s-2.936,6.543-6.543,6.543c-3.607,0-6.543-2.936-6.543-6.543S144.893,97.729,148.501,97.729z"/>
</g>
<g>
</g>
<g>
</g>
<g>
</g>
<g>
</g>
<g>
</g>
<g>
</g>
<g>
</g>
<g>
</g>
<g>
</g>
<g>
</g>
<g>
</g>
<g>
</g>
<g>
</g>
<g>
</g>
<g>
</g>
</svg>
