<?xml version="1.0" encoding="iso-8859-1"?>
<!-- Generator: Adobe Illustrator 18.0.0, SVG Export Plug-In . SVG Version: 6.00 Build 0)  -->
<!DOCTYPE svg PUBLIC "-//W3C//DTD SVG 1.1//EN" "http://www.w3.org/Graphics/SVG/1.1/DTD/svg11.dtd">
<svg version="1.1" id="Capa_1" xmlns="http://www.w3.org/2000/svg" xmlns:xlink="http://www.w3.org/1999/xlink" x="0px" y="0px"
	 viewBox="0 0 297 297" style="enable-background:new 0 0 297 297;" xml:space="preserve">
<g>
	<path d="M259.352,219.903h-17.779v-55.712c0-51.336-41.753-93.102-93.073-93.102s-93.073,41.766-93.073,93.102v55.712H37.647
		c-5.485,0-9.933,4.447-9.933,9.933v41.586c0,5.486,4.447,9.934,9.933,9.934h221.705c5.485,0,9.933-4.447,9.933-9.934v-41.586
		C269.285,224.351,264.838,219.903,259.352,219.903z M75.293,164.191c0-40.383,32.84-73.235,73.207-73.235
		s73.207,32.853,73.207,73.235v55.712H75.293V164.191z M249.419,261.489H47.581v-21.72h201.838V261.489z"/>
	<path d="M47.58,164.191c0-5.485-4.447-9.934-9.934-9.934H9.934c-5.486,0-9.934,4.448-9.934,9.934c0,5.485,4.447,9.933,9.934,9.933
		h27.713C43.133,174.124,47.58,169.677,47.58,164.191z"/>
	<path d="M58.335,88.046c1.938,1.94,4.481,2.91,7.023,2.91s5.084-0.97,7.023-2.909c3.88-3.878,3.88-10.168,0.001-14.047
		L58.525,60.141c-3.876-3.879-10.166-3.879-14.047-0.001c-3.88,3.879-3.88,10.168-0.001,14.047L58.335,88.046z"/>
	<path d="M231.641,90.956c2.542,0,5.085-0.97,7.023-2.91l13.857-13.859c3.879-3.879,3.879-10.168-0.001-14.047
		c-3.879-3.88-10.169-3.879-14.047,0.001L224.616,74c-3.879,3.879-3.879,10.169,0.001,14.047
		C226.557,89.986,229.098,90.956,231.641,90.956z"/>
	<path d="M287.066,154.258h-27.714c-5.486,0-9.934,4.448-9.934,9.934c0,5.485,4.447,9.933,9.934,9.933h27.714
		c5.486,0,9.934-4.447,9.934-9.933C297,158.706,292.553,154.258,287.066,154.258z"/>
	<path d="M148.499,63.234c5.485,0,9.934-4.447,9.934-9.934V25.578c0-5.486-4.448-9.934-9.934-9.934
		c-5.485,0-9.933,4.447-9.933,9.934v27.723C138.566,58.787,143.014,63.234,148.499,63.234z"/>
</g>
<g>
</g>
<g>
</g>
<g>
</g>
<g>
</g>
<g>
</g>
<g>
</g>
<g>
</g>
<g>
</g>
<g>
</g>
<g>
</g>
<g>
</g>
<g>
</g>
<g>
</g>
<g>
</g>
<g>
</g>
</svg>
