<?xml version="1.0" encoding="iso-8859-1"?>
<!-- Generator: Adobe Illustrator 18.0.0, SVG Export Plug-In . SVG Version: 6.00 Build 0)  -->
<!DOCTYPE svg PUBLIC "-//W3C//DTD SVG 1.1//EN" "http://www.w3.org/Graphics/SVG/1.1/DTD/svg11.dtd">
<svg version="1.1" id="Capa_1" xmlns="http://www.w3.org/2000/svg" xmlns:xlink="http://www.w3.org/1999/xlink" x="0px" y="0px"
	 viewBox="0 0 297 297" style="enable-background:new 0 0 297 297;" xml:space="preserve">
<path d="M286.928,69.574h-166.74c-19.137,0-36.792,6.43-50.947,17.228c-3.354-15.824-17.43-27.734-34.238-27.734
	C15.702,59.068,0,74.77,0,94.07c0,19.3,15.702,35.002,35.002,35.002c1.63,0,3.231-0.121,4.803-0.338
	c-2.466,7.907-3.795,16.311-3.795,25.02c0,46.416,37.762,84.178,84.178,84.178c43.009,0,78.588-32.421,83.58-74.105h83.16
	c5.563,0,10.072-4.51,10.072-10.072V79.646C297,74.084,292.49,69.574,286.928,69.574z M20.145,94.07
	c0-8.192,6.666-14.857,14.857-14.857c8.191,0,14.857,6.665,14.857,14.857c0,8.191-6.666,14.857-14.857,14.857
	C26.81,108.927,20.145,102.262,20.145,94.07z M276.855,143.681h-82.561c-5.563,0-10.073,4.511-10.073,10.073
	c0,35.308-28.725,64.033-64.034,64.033c-35.308,0-64.033-28.726-64.033-64.033c0-35.31,28.726-64.034,64.033-64.034h22.596v9.891
	c0,5.563,4.51,10.072,10.072,10.072s10.072-4.51,10.072-10.072V89.72h113.928V143.681z"/>
<g>
</g>
<g>
</g>
<g>
</g>
<g>
</g>
<g>
</g>
<g>
</g>
<g>
</g>
<g>
</g>
<g>
</g>
<g>
</g>
<g>
</g>
<g>
</g>
<g>
</g>
<g>
</g>
<g>
</g>
</svg>
