<?xml version="1.0" encoding="iso-8859-1"?>
<!-- Generator: Adobe Illustrator 18.0.0, SVG Export Plug-In . SVG Version: 6.00 Build 0)  -->
<!DOCTYPE svg PUBLIC "-//W3C//DTD SVG 1.1//EN" "http://www.w3.org/Graphics/SVG/1.1/DTD/svg11.dtd">
<svg version="1.1" id="Capa_1" xmlns="http://www.w3.org/2000/svg" xmlns:xlink="http://www.w3.org/1999/xlink" x="0px" y="0px"
	 viewBox="0 0 297 297" style="enable-background:new 0 0 297 297;" xml:space="preserve">
<path d="M287.631,189.958h-13.804v-34.085c0-5.175-4.195-9.369-9.369-9.369c-9.411,0-16.184-8.589-19.383-13.708
	c-6.381-10.21-9.895-23.975-9.895-38.759c0-14.803,3.521-28.578,9.915-38.791c1.637-2.613,1.883-5.865,0.657-8.695
	c-1.226-2.83-3.767-4.875-6.792-5.47l-5.653-1.11v-16.08c0-3.643-2.619-6.758-6.209-7.383L196.18,11.12
	c-2.179-0.382-4.417,0.223-6.11,1.648c-1.693,1.423-2.671,3.523-2.671,5.736v12.448l-8.191-1.609
	c-3.955-0.778-7.958,1.059-9.949,4.559c-1.992,3.501-1.523,7.883,1.163,10.883c4.827,5.392,7.484,12.353,7.484,19.601
	c0,16.214-13.19,29.405-29.405,29.405c-16.215,0-29.405-13.191-29.405-29.405c0-7.242,2.66-14.203,7.492-19.601
	c2.687-3,3.154-7.382,1.163-10.883c-1.991-3.5-5.993-5.337-9.949-4.559l-8.183,1.607V18.504c0-2.213-0.978-4.313-2.672-5.736
	c-1.694-1.425-3.932-2.029-6.109-1.648l-30.918,5.388c-3.59,0.625-6.209,3.74-6.209,7.383v16.08l-5.654,1.11
	c-3.026,0.595-5.566,2.64-6.792,5.47c-1.225,2.83-0.979,6.082,0.657,8.695c6.301,10.065,9.915,24.204,9.915,38.791
	c0,14.784-3.515,28.549-9.895,38.759c-3.199,5.119-9.973,13.708-19.383,13.708c-5.174,0-9.369,4.194-9.369,9.369v34.085H9.369
	c-5.174,0-9.369,4.195-9.369,9.369v30.918c0,5.174,4.195,9.369,9.369,9.369h13.819v37.008c0,5.174,4.195,9.369,9.369,9.369h231.9
	c5.174,0,9.369-4.195,9.369-9.369v-37.008h13.804c5.174,0,9.369-4.195,9.369-9.369v-30.918
	C297,194.154,292.805,189.958,287.631,189.958z M202.389,27.418l15.928,2.775v6.832l-15.928-3.128V27.418z M78.7,30.194
	l15.928-2.775v6.477L78.7,37.026V30.194z M18.738,208.697h74.016v12.18H18.738V208.697z M255.089,267.253H41.927v-27.639h60.196
	c5.174,0,9.369-4.195,9.369-9.369v-30.918c0-5.174-4.195-9.369-9.369-9.369H41.927v-26.016
	c22.293-6.292,38.647-34.744,38.647-69.905c0-13.224-2.375-25.941-6.81-36.946l28.338-5.567c-1.15,4.153-1.746,8.477-1.746,12.862
	c0,26.547,21.598,48.143,48.146,48.143c26.545,0,48.142-21.596,48.142-48.143c0-4.387-0.596-8.711-1.745-12.864l28.353,5.569
	c-4.435,11.005-6.81,23.722-6.81,36.946c0,35.161,16.354,63.613,38.647,69.905v26.016h-60.212c-5.174,0-9.369,4.195-9.369,9.369
	v30.918c0,5.174,4.195,9.369,9.369,9.369h60.212V267.253z M278.262,220.876h-74.016v-12.18h74.016V220.876z"/>
<g>
</g>
<g>
</g>
<g>
</g>
<g>
</g>
<g>
</g>
<g>
</g>
<g>
</g>
<g>
</g>
<g>
</g>
<g>
</g>
<g>
</g>
<g>
</g>
<g>
</g>
<g>
</g>
<g>
</g>
</svg>
