<?xml version="1.0" encoding="iso-8859-1"?>
<!-- Generator: Adobe Illustrator 18.0.0, SVG Export Plug-In . SVG Version: 6.00 Build 0)  -->
<!DOCTYPE svg PUBLIC "-//W3C//DTD SVG 1.1//EN" "http://www.w3.org/Graphics/SVG/1.1/DTD/svg11.dtd">
<svg version="1.1" id="Capa_1" xmlns="http://www.w3.org/2000/svg" xmlns:xlink="http://www.w3.org/1999/xlink" x="0px" y="0px"
	 viewBox="0 0 297 297" style="enable-background:new 0 0 297 297;" xml:space="preserve">
<g>
	<path d="M296.665,148.506c-0.698-2.699-2.44-5.012-4.843-6.426l-20.836-12.274l3.469-5.888c1.414-2.403,1.818-5.27,1.12-7.969
		c-0.698-2.699-2.44-5.012-4.844-6.427L91.361,3.868c-5.004-2.948-11.448-1.28-14.395,3.723L64.694,28.427L43.858,16.152
		c-2.402-1.416-5.269-1.816-7.969-1.119c-2.699,0.697-5.012,2.439-6.426,4.843l-17.61,29.896c-1.415,2.402-1.818,5.269-1.12,7.969
		c0.698,2.699,2.44,5.012,4.844,6.426l20.835,12.273L24.139,97.274c-1.415,2.403-1.818,5.27-1.12,7.969
		c0.698,2.699,2.44,5.012,4.843,6.427l76.226,44.899v82.296H10.514C4.708,238.865,0,243.573,0,249.38v34.695
		c0,5.807,4.708,10.514,10.514,10.514h138.783c5.806,0,10.514-4.707,10.514-10.514v-94.683l47.421,27.934
		c1.676,0.986,3.513,1.457,5.326,1.457c3.602,0,7.109-1.853,9.069-5.181l3.468-5.888l20.836,12.273
		c1.631,0.961,3.476,1.455,5.336,1.455c0.881,0,1.766-0.111,2.633-0.335c2.699-0.698,5.012-2.44,6.427-4.843l35.219-59.791
		C296.961,154.072,297.363,151.205,296.665,148.506z M35.308,51.385l6.937-11.778l11.776,6.938l-6.937,11.776L35.308,51.385z
		 M138.783,177.23v96.332H21.027v-13.668h93.573c5.807,0,10.515-4.708,10.515-10.514v-80.424L138.783,177.23z M208.845,193.872
		L47.593,98.888l42.156-71.565l161.252,94.983L208.845,193.872z M247.544,196.534l-11.777-6.938l24.547-41.672l11.777,6.936
		L247.544,196.534z"/>
	<path d="M208.769,155.207c-1.954-1.956-4.667-3.08-7.433-3.08c-2.765,0-5.477,1.124-7.434,3.08c-1.956,1.955-3.08,4.668-3.08,7.434
		c0,2.765,1.124,5.478,3.08,7.433c1.956,1.956,4.669,3.081,7.434,3.081c2.766,0,5.479-1.125,7.433-3.081
		c1.956-1.955,3.082-4.668,3.082-7.433C211.852,159.875,210.726,157.162,208.769,155.207z"/>
</g>
<g>
</g>
<g>
</g>
<g>
</g>
<g>
</g>
<g>
</g>
<g>
</g>
<g>
</g>
<g>
</g>
<g>
</g>
<g>
</g>
<g>
</g>
<g>
</g>
<g>
</g>
<g>
</g>
<g>
</g>
</svg>
