<?xml version="1.0" encoding="iso-8859-1"?>
<!-- Generator: Adobe Illustrator 18.0.0, SVG Export Plug-In . SVG Version: 6.00 Build 0)  -->
<!DOCTYPE svg PUBLIC "-//W3C//DTD SVG 1.1//EN" "http://www.w3.org/Graphics/SVG/1.1/DTD/svg11.dtd">
<svg version="1.1" id="Capa_1" xmlns="http://www.w3.org/2000/svg" xmlns:xlink="http://www.w3.org/1999/xlink" x="0px" y="0px"
	 viewBox="0 0 297 297" style="enable-background:new 0 0 297 297;" xml:space="preserve">
<g>
	<path d="M89.015,135.194c1.048,0,1.969-0.402,2.665-1.164c0.668-0.731,1.008-1.733,1.008-2.978v-4.341h2.305
		c2.956,0,5.262-0.676,6.856-2.009c1.675-1.401,2.524-3.432,2.524-6.032c0-1.195-0.201-2.298-0.598-3.276
		c-0.412-1.018-1.026-1.896-1.83-2.606c-0.798-0.707-1.75-1.217-2.821-1.515c-1.013-0.29-2.364-0.431-4.131-0.431H89.57
		c-1.335,0-2.38,0.343-3.104,1.019c-0.755,0.705-1.138,1.76-1.138,3.137v16.083c0,1.23,0.332,2.222,0.987,2.949
		C87.003,134.791,87.937,135.194,89.015,135.194z M92.688,120.392v-3.245h1.281c2.124,0,2.597,0.428,2.599,0.428
		c0.167,0.179,0.391,0.497,0.391,1.181c0,0.291-0.038,0.688-0.221,0.933c-0.149,0.203-0.392,0.354-0.737,0.463
		c-0.514,0.16-1.198,0.241-2.031,0.241H92.688z"/>
	<path d="M109.739,131.659c1.018,1.129,2.296,2.014,3.802,2.628c1.473,0.602,3.147,0.906,4.977,0.906
		c1.836,0,3.503-0.297,4.955-0.883c1.487-0.599,2.763-1.481,3.794-2.623c1.015-1.127,1.784-2.469,2.287-3.987
		c0.486-1.471,0.733-3.116,0.733-4.889c0-2.415-0.457-4.565-1.356-6.393c-0.936-1.897-2.334-3.383-4.156-4.414
		c-1.782-1.008-3.917-1.52-6.343-1.52c-1.785,0-3.416,0.29-4.848,0.858c-1.462,0.581-2.726,1.437-3.757,2.545
		c-1.018,1.096-1.803,2.432-2.333,3.973c-0.515,1.494-0.775,3.15-0.775,4.922c0,1.725,0.248,3.359,0.738,4.856
		C107.965,129.189,108.733,130.541,109.739,131.659z M118.432,116.976c0.894,0,1.652,0.204,2.321,0.622
		c0.65,0.408,1.146,1.012,1.512,1.847c0.404,0.913,0.608,2.036,0.608,3.339c0,1.409-0.22,2.586-0.652,3.498
		c-0.404,0.852-0.912,1.45-1.553,1.832c-0.664,0.397-1.377,0.59-2.178,0.59c-0.631,0-1.186-0.109-1.692-0.334
		c-0.499-0.221-0.935-0.552-1.33-1.009c-0.401-0.466-0.724-1.081-0.957-1.827c-0.249-0.804-0.377-1.729-0.377-2.75
		c0-1.01,0.127-1.922,0.375-2.709c0.234-0.739,0.546-1.34,0.925-1.785c0.365-0.43,0.789-0.748,1.294-0.971
		C117.244,117.088,117.802,116.976,118.432,116.976z"/>
	<path d="M137.757,134.838h10.205c1.081,0,1.961-0.293,2.615-0.868c0.7-0.618,1.071-1.454,1.071-2.42
		c0-0.945-0.367-1.778-1.063-2.411c-0.66-0.601-1.543-0.904-2.624-0.904h-7.003v-13.621c0-1.27-0.341-2.277-1.012-2.998
		c-0.691-0.738-1.621-1.13-2.688-1.13c-1.07,0-1.997,0.4-2.68,1.16c-0.648,0.72-0.978,1.72-0.978,2.968v16.068
		c0,1.334,0.355,2.369,1.057,3.081C135.366,134.477,136.407,134.838,137.757,134.838z"/>
	<path d="M158.036,135.194c1.073,0,2.006-0.395,2.696-1.145c0.666-0.725,1.005-1.732,1.005-2.997v-16.438
		c0-1.268-0.341-2.275-1.012-2.996c-0.69-0.74-1.62-1.132-2.689-1.132c-1.059,0-1.98,0.398-2.665,1.151
		c-0.658,0.723-0.992,1.724-0.992,2.977v16.438c0,1.253,0.336,2.257,1,2.984C156.069,134.793,156.989,135.194,158.036,135.194z"/>
	<path d="M166.741,129.073c0.442,0.925,0.988,1.776,1.631,2.542c0.724,0.846,1.536,1.541,2.411,2.066
		c0.873,0.524,1.852,0.914,2.908,1.158c1.011,0.234,2.141,0.354,3.357,0.354c1.656,0,3.145-0.275,4.427-0.822
		c1.283-0.546,2.366-1.28,3.217-2.182c0.827-0.878,1.448-1.801,1.847-2.741c0.408-0.964,0.614-1.895,0.614-2.766
		c0-0.945-0.351-1.786-1.014-2.43c-0.652-0.636-1.478-0.972-2.388-0.972c-1.367,0-2.126,0.615-2.523,1.133
		c-0.377,0.49-0.677,1.083-0.897,1.759c-0.319,0.874-0.759,1.503-1.342,1.921c-0.572,0.41-1.282,0.609-2.17,0.609
		c-0.823,0-1.509-0.18-2.093-0.552c-0.564-0.36-1.002-0.917-1.334-1.702c-0.37-0.877-0.559-2.033-0.559-3.439
		c0-2.061,0.408-3.627,1.213-4.658c0.733-0.938,1.659-1.376,2.915-1.376c0.773,0,1.384,0.161,1.866,0.492
		c0.532,0.367,1.02,0.961,1.447,1.766c0.422,0.795,0.807,1.343,1.209,1.724c0.568,0.541,1.341,0.814,2.295,0.814
		c0.924,0,1.75-0.365,2.389-1.058c0.606-0.658,0.928-1.468,0.928-2.343c0-1.208-0.451-2.459-1.341-3.716
		c-0.848-1.196-2.059-2.2-3.597-2.987c-1.536-0.785-3.295-1.183-5.225-1.183c-1.579,0-3.093,0.288-4.499,0.854
		c-1.425,0.573-2.684,1.422-3.745,2.521c-1.06,1.099-1.88,2.43-2.44,3.954c-0.551,1.496-0.83,3.196-0.83,5.054
		c0,1.137,0.109,2.231,0.326,3.253C165.964,127.157,166.298,128.152,166.741,129.073z"/>
	<path d="M194.894,134.838h11.486c1.063,0,1.925-0.293,2.558-0.873c0.664-0.607,1.015-1.422,1.015-2.357
		c0-0.952-0.35-1.777-1.017-2.389c-0.634-0.577-1.494-0.871-2.556-0.871h-8.284v-2.804h7.201c1.068,0,1.921-0.297,2.533-0.882
		c0.625-0.596,0.955-1.388,0.955-2.292c0-0.918-0.342-1.714-0.988-2.304c-0.614-0.559-1.455-0.842-2.5-0.842h-7.201v-1.992h7.956
		c1.073,0,1.935-0.288,2.559-0.859c0.654-0.6,1-1.409,1-2.343c0-0.927-0.347-1.732-1-2.329c-0.622-0.569-1.483-0.859-2.559-0.859
		h-11.158c-0.832,0-1.526,0.133-2.123,0.405c-0.721,0.329-1.28,0.882-1.613,1.598c-0.282,0.602-0.42,1.306-0.42,2.152v15.685
		c0,1.333,0.356,2.369,1.057,3.079C192.5,134.475,193.543,134.838,194.894,134.838z"/>
	<path d="M255.985,10.436c0-4.05-2.343-7.733-6.01-9.451c-3.668-1.717-7.998-1.157-11.108,1.434
		c-24.051,20.043-56.144,31.081-90.368,31.081c-34.224,0-66.316-11.038-90.367-31.08c-3.108-2.593-7.441-3.15-11.108-1.433
		c-3.668,1.717-6.01,5.401-6.01,9.45l0.001,242.628c0,3.098,1.376,6.035,3.755,8.018C72.564,284.244,109.402,297,148.498,297
		c39.098,0,75.938-12.756,103.733-35.919c2.379-1.983,3.755-4.921,3.755-8.019L255.985,10.436z M148.498,54.372
		c31.525,0,61.582-8.293,86.613-23.649v56.656H61.887V30.724C86.918,46.079,116.974,54.372,148.498,54.372z M230.948,104.078v37.787
		H66.052v-37.787H230.948z M148.498,276.127c-32.471,0-63.025-9.938-86.61-28.073v-89.49h173.225l0.002,89.487
		C211.527,266.19,180.971,276.127,148.498,276.127z"/>
</g>
<g>
</g>
<g>
</g>
<g>
</g>
<g>
</g>
<g>
</g>
<g>
</g>
<g>
</g>
<g>
</g>
<g>
</g>
<g>
</g>
<g>
</g>
<g>
</g>
<g>
</g>
<g>
</g>
<g>
</g>
</svg>
