<?xml version="1.0" encoding="iso-8859-1"?>
<!-- Generator: Adobe Illustrator 18.0.0, SVG Export Plug-In . SVG Version: 6.00 Build 0)  -->
<!DOCTYPE svg PUBLIC "-//W3C//DTD SVG 1.1//EN" "http://www.w3.org/Graphics/SVG/1.1/DTD/svg11.dtd">
<svg version="1.1" id="Capa_1" xmlns="http://www.w3.org/2000/svg" xmlns:xlink="http://www.w3.org/1999/xlink" x="0px" y="0px"
	 viewBox="0 0 297 297" style="enable-background:new 0 0 297 297;" xml:space="preserve">
<g>
	<path d="M148.5,129.953c-10.227,0-18.547,8.319-18.547,18.547s8.319,18.547,18.547,18.547s18.547-8.319,18.547-18.547
		S158.727,129.953,148.5,129.953z M148.5,149.72c-0.673,0-1.22-0.547-1.22-1.22s0.547-1.22,1.22-1.22s1.22,0.547,1.22,1.22
		S149.173,149.72,148.5,149.72z"/>
	<path d="M287.116,138.616h-25.204c-4.744-54.905-48.623-98.784-103.528-103.527V9.884c0-5.458-4.426-9.884-9.884-9.884
		s-9.884,4.426-9.884,9.884v25.205C83.711,39.832,39.832,83.711,35.088,138.616H9.884C4.426,138.616,0,143.042,0,148.5
		s4.426,9.884,9.884,9.884h25.204c4.744,54.905,48.623,98.784,103.528,103.527v25.205c0,5.458,4.426,9.884,9.884,9.884
		s9.884-4.426,9.884-9.884v-25.205c54.905-4.743,98.784-48.622,103.528-103.527h25.204c5.458,0,9.884-4.426,9.884-9.884
		S292.574,138.616,287.116,138.616z M242.061,138.616h-32.495c-4.227-26.209-24.973-46.954-51.182-51.182V54.939
		C202.382,59.554,237.445,94.618,242.061,138.616z M183.154,158.384h6.26c-3.692,15.285-15.745,27.338-31.03,31.03v-6.26
		c0-5.458-4.426-9.884-9.884-9.884s-9.884,4.426-9.884,9.884v6.26c-15.285-3.692-27.338-15.745-31.03-31.03h6.26
		c5.458,0,9.884-4.426,9.884-9.884s-4.426-9.884-9.884-9.884h-6.26c3.692-15.285,15.745-27.338,31.03-31.03v6.26
		c0,5.458,4.426,9.884,9.884,9.884s9.884-4.426,9.884-9.884v-6.26c15.285,3.692,27.338,15.745,31.03,31.03h-6.26
		c-5.458,0-9.884,4.426-9.884,9.884S177.696,158.384,183.154,158.384z M138.616,54.939v32.495
		c-26.209,4.228-46.954,24.973-51.182,51.182H54.939C59.555,94.618,94.618,59.554,138.616,54.939z M54.939,158.384h32.495
		c4.228,26.21,24.973,46.954,51.182,51.182v32.495C94.618,237.446,59.555,202.382,54.939,158.384z M158.384,242.061v-32.495
		c26.209-4.227,46.954-24.972,51.182-51.182h32.495C237.445,202.382,202.382,237.446,158.384,242.061z"/>
</g>
<g>
</g>
<g>
</g>
<g>
</g>
<g>
</g>
<g>
</g>
<g>
</g>
<g>
</g>
<g>
</g>
<g>
</g>
<g>
</g>
<g>
</g>
<g>
</g>
<g>
</g>
<g>
</g>
<g>
</g>
</svg>
