<?xml version="1.0" encoding="iso-8859-1"?>
<!-- Generator: Adobe Illustrator 18.0.0, SVG Export Plug-In . SVG Version: 6.00 Build 0)  -->
<!DOCTYPE svg PUBLIC "-//W3C//DTD SVG 1.1//EN" "http://www.w3.org/Graphics/SVG/1.1/DTD/svg11.dtd">
<svg version="1.1" id="Capa_1" xmlns="http://www.w3.org/2000/svg" xmlns:xlink="http://www.w3.org/1999/xlink" x="0px" y="0px"
	 viewBox="0 0 297 297" style="enable-background:new 0 0 297 297;" xml:space="preserve">
<path d="M274.295,28.466c0-7.465-2.893-14.469-8.142-19.717l-0.602-0.601C260.297,2.893,253.293,0,245.829,0
	c-7.465,0-14.469,2.893-19.723,8.148l-117.721,117.72c-3.642-1.693-7.644-2.589-11.788-2.589c-7.465,0-14.469,2.894-19.724,8.147
	l-39.525,39.526c-5.255,5.253-8.148,12.258-8.148,19.722c0,4.146,0.896,8.148,2.59,11.789l-0.931,0.931
	c-10.874,10.874-10.874,28.568,0.006,39.451l0.591,0.588c5.254,5.255,12.258,8.149,19.722,8.149h0.001
	c7.464,0,14.468-2.895,19.722-8.147l0.931-0.931c3.641,1.693,7.642,2.59,11.788,2.59c4.146,0,8.148-0.896,11.789-2.59l46.351,46.349
	c5.254,5.255,12.258,8.147,19.722,8.147c7.465,0,14.469-2.893,19.73-8.153l0.588-0.59c5.256-5.254,8.149-12.258,8.149-19.723
	c0-7.464-2.894-14.468-8.148-19.722l-45.162-45.161l6.23-6.231c5.255-5.253,8.149-12.258,8.149-19.722
	c0-4.146-0.896-8.149-2.59-11.79L266.149,48.188C271.403,42.934,274.295,35.93,274.295,28.466z M45.538,229.34l-0.591-0.588
	c-3.021-3.021-3.096-7.877-0.245-11.001l11.84,11.84c-1.458,1.332-3.346,2.068-5.363,2.068
	C49.036,231.659,47.035,230.838,45.538,229.34z M83.619,225.171c-2.142,0-4.144-0.821-5.634-2.313l-26.551-26.55
	c-1.491-1.49-2.313-3.491-2.313-5.635c0-2.142,0.821-4.143,2.313-5.634l39.525-39.526c1.491-1.491,3.493-2.313,5.637-2.313
	c2.142,0,4.144,0.821,5.634,2.313l26.551,26.55c1.491,1.49,2.312,3.491,2.312,5.635c0,2.142-0.82,4.143-2.314,5.634l-39.524,39.526
	C87.765,224.35,85.763,225.171,83.619,225.171z M167.713,262.9c1.491,1.491,2.312,3.492,2.312,5.634c0,2.143-0.82,4.143-2.318,5.641
	l-0.589,0.591c-1.491,1.491-3.493,2.311-5.637,2.311c-2.143,0-4.145-0.82-5.635-2.311l-45.161-45.161l11.865-11.867L167.713,262.9z
	 M252.061,34.1L135.528,150.634l-11.866-11.866L240.195,22.235c1.49-1.492,3.492-2.313,5.635-2.313c2.143,0,4.145,0.82,5.629,2.307
	l0.602,0.602c1.491,1.491,2.313,3.492,2.313,5.635S253.552,32.609,252.061,34.1z"/>
<g>
</g>
<g>
</g>
<g>
</g>
<g>
</g>
<g>
</g>
<g>
</g>
<g>
</g>
<g>
</g>
<g>
</g>
<g>
</g>
<g>
</g>
<g>
</g>
<g>
</g>
<g>
</g>
<g>
</g>
</svg>
