<?xml version="1.0" encoding="iso-8859-1"?>
<!-- Generator: Adobe Illustrator 18.0.0, SVG Export Plug-In . SVG Version: 6.00 Build 0)  -->
<!DOCTYPE svg PUBLIC "-//W3C//DTD SVG 1.1//EN" "http://www.w3.org/Graphics/SVG/1.1/DTD/svg11.dtd">
<svg version="1.1" id="Capa_1" xmlns="http://www.w3.org/2000/svg" xmlns:xlink="http://www.w3.org/1999/xlink" x="0px" y="0px"
	 viewBox="0 0 297 297" style="enable-background:new 0 0 297 297;" xml:space="preserve">
<g>
	<g>
		<path d="M74.374,137.78c-0.435-0.309-0.909-0.597-1.419-0.863c1.023-0.128,1.928-0.61,2.642-1.417
			c0.771-0.877,1.18-1.935,1.18-3.057c0-1.011-0.253-2.039-0.754-3.055c-0.483-0.982-1.232-1.913-2.232-2.77
			c-0.983-0.838-2.211-1.511-3.644-1.997c-1.402-0.479-3.057-0.721-4.92-0.721c-2.309,0-4.372,0.36-6.132,1.069
			c-1.878,0.76-3.353,1.885-4.379,3.348c-1.042,1.483-1.569,3.192-1.569,5.078c0,1.973,0.514,3.677,1.524,5.063
			c0.96,1.313,2.26,2.357,3.864,3.104c1.422,0.661,3.183,1.239,5.242,1.72c1.371,0.314,2.468,0.61,3.261,0.88
			c0.569,0.194,1.006,0.451,1.332,0.785c0.076,0.077,0.254,0.259,0.254,0.791c0,0.361-0.087,0.76-0.718,1.23
			c-0.656,0.488-1.581,0.736-2.753,0.736c-1.058,0-1.635-0.184-1.934-0.338c-0.436-0.226-0.75-0.484-0.96-0.788
			c-0.313-0.454-0.616-1.046-0.895-1.744c-0.396-1.013-0.893-1.787-1.517-2.361c-0.761-0.705-1.729-1.077-2.801-1.077
			c-1.242,0-2.338,0.45-3.166,1.302c-0.817,0.838-1.249,1.901-1.249,3.077c0,1.512,0.488,3.049,1.452,4.57
			c0.93,1.466,2.156,2.654,3.655,3.538c2.022,1.176,4.565,1.772,7.56,1.772c2.487,0,4.694-0.43,6.559-1.278
			c1.958-0.89,3.479-2.159,4.518-3.77c1.044-1.613,1.573-3.449,1.573-5.456c0-1.669-0.317-3.132-0.943-4.343
			C76.381,139.596,75.497,138.578,74.374,137.78z M69.179,135.463c-0.857-0.256-1.769-0.497-2.717-0.719
			c-1.168-0.295-2.007-0.518-2.519-0.673c-0.391-0.118-0.786-0.286-1.179-0.502c-0.262-0.143-0.456-0.297-0.578-0.46
			c-0.014-0.019-0.045-0.061-0.045-0.208c0-0.086,0-0.286,0.47-0.621c0.514-0.369,1.271-0.557,2.248-0.557
			c1.448,0,1.926,0.305,2.041,0.399c0.46,0.381,0.877,0.956,1.276,1.782C68.514,134.537,68.845,135.052,69.179,135.463z"/>
		<path d="M113.416,123.902c-1.549,0-2.492,0.608-3.01,1.118c-0.595,0.585-1.024,1.269-1.281,2.04
			c-0.179,0.546-0.355,1.246-0.534,2.108l-1.773,7.905l-1.893-6.984c-0.349-1.276-0.624-2.183-0.844-2.777
			c-0.312-0.831-0.851-1.588-1.601-2.247c-0.874-0.772-2.032-1.163-3.441-1.163c-1.367,0-2.511,0.364-3.396,1.087
			c-0.789,0.644-1.371,1.428-1.726,2.328c-0.264,0.667-0.546,1.58-0.858,2.78l-1.861,6.936l-1.759-7.842
			c-0.298-1.403-0.654-2.48-1.092-3.295c-0.4-0.745-1.42-1.994-3.739-1.994c-1.235,0-2.342,0.442-3.197,1.277
			c-0.87,0.849-1.329,1.947-1.329,3.175c0,0.73,0.147,1.648,0.461,2.876l4.477,18.107c0.138,0.551,0.294,1.148,0.468,1.784
			c0.215,0.797,0.506,1.511,0.863,2.119c0.443,0.755,1.039,1.352,1.773,1.776c0.737,0.424,1.626,0.64,2.645,0.64
			c1.304,0,2.404-0.368,3.275-1.1c0.756-0.639,1.303-1.391,1.628-2.243c0.225-0.595,0.509-1.509,0.874-2.809l2.481-9.091
			l2.456,9.107c0.382,1.355,0.662,2.256,0.878,2.826c0.317,0.846,0.867,1.597,1.635,2.231c0.864,0.715,1.96,1.077,3.26,1.077
			c1.373,0,2.502-0.384,3.354-1.14c0.733-0.648,1.262-1.424,1.58-2.316c0.227-0.64,0.5-1.604,0.815-2.87l4.477-18.105
			c0.314-1.286,0.46-2.198,0.46-2.871c0-1.252-0.471-2.359-1.358-3.202C115.725,124.334,114.629,123.902,113.416,123.902z"/>
		<path d="M140.348,130.255c-0.338-0.889-0.617-1.601-0.836-2.131c-0.268-0.648-0.602-1.265-0.99-1.826
			c-0.481-0.701-1.115-1.276-1.881-1.708c-0.807-0.457-1.772-0.688-2.872-0.688c-1.088,0-2.048,0.231-2.853,0.687
			c-0.772,0.437-1.412,1.023-1.901,1.75c-0.393,0.59-0.746,1.286-1.078,2.133l-7.573,19.24c-0.302,0.746-0.518,1.332-0.656,1.779
			c-0.183,0.579-0.275,1.161-0.275,1.731c0,1.178,0.484,2.263,1.399,3.136c0.891,0.85,1.99,1.299,3.182,1.299
			c1.812,0,2.805-0.812,3.319-1.492c0.479-0.637,0.975-1.66,1.558-3.225l0.805-2.16h8.193l0.819,2.152
			c0.176,0.426,0.387,0.918,0.633,1.483c0.315,0.717,0.61,1.238,0.93,1.642c0.388,0.486,0.868,0.876,1.435,1.162
			c0.581,0.29,1.248,0.438,1.984,0.438c1.256,0,2.39-0.47,3.28-1.359c0.888-0.89,1.356-1.966,1.356-3.111
			c0-0.882-0.311-2.038-0.971-3.621L140.348,130.255z M132.561,140.736l1.188-3.311l1.209,3.311H132.561z"/>
		<path d="M168.261,124.36h-17.311c-1.377,0-2.498,0.365-3.33,1.081c-0.914,0.783-1.397,1.873-1.397,3.151
			c0,1.233,0.458,2.301,1.325,3.086c0.824,0.749,1.969,1.128,3.402,1.128h3.965v17.554c0,1.621,0.432,2.911,1.284,3.835
			c0.882,0.956,2.066,1.462,3.424,1.462c1.345,0,2.519-0.502,3.397-1.453c0.847-0.918,1.275-2.211,1.275-3.844v-17.554h3.966
			c1.419,0,2.564-0.373,3.399-1.109c0.893-0.789,1.364-1.862,1.364-3.105c0-1.23-0.461-2.301-1.339-3.099
			C170.853,124.741,169.7,124.36,168.261,124.36z"/>
	</g>
	<path d="M2.521,225.143c1.875,2.094,4.553,3.29,7.363,3.29h23.904c4.468,18.682,21.296,32.616,41.327,32.616
		c20.03,0,36.858-13.934,41.326-32.616h64.117c4.468,18.682,21.296,32.616,41.327,32.616c20.03,0,36.858-13.934,41.326-32.616
		h23.904c5.458,0,9.884-4.425,9.884-9.883v-65.231c0-0.411-0.033-0.814-0.082-1.211c-0.013-0.104-0.031-0.206-0.046-0.309
		c-0.05-0.318-0.113-0.631-0.192-0.938c-0.023-0.089-0.044-0.177-0.068-0.265c-0.225-0.786-0.545-1.529-0.945-2.222
		c-0.022-0.039-0.038-0.08-0.061-0.119l-48.924-82.034c-1.783-2.99-5.007-4.821-8.488-4.821h-22.751
		c-0.395-14.1-11.979-25.449-26.173-25.449c-14.193,0-25.777,11.35-26.173,25.449H26.192c-5.037,0-9.269,3.788-9.823,8.796
		L0.06,217.462C-0.249,220.255,0.646,223.048,2.521,225.143z M195.648,61.401h-12.756c0.369-3.193,3.088-5.682,6.378-5.682
		C192.56,55.719,195.279,58.207,195.648,61.401z M269.714,143.435h-70.561V81.168h33.426L269.714,143.435z M199.154,218.55
		c0-12.535,10.197-22.732,22.732-22.732c12.534,0,22.732,10.197,22.732,22.732c0,12.534-10.197,22.731-22.732,22.731
		C209.351,241.281,199.154,231.084,199.154,218.55z M52.383,218.55c0-12.535,10.197-22.732,22.732-22.732
		c12.534,0,22.731,10.197,22.731,22.732c0,12.534-10.197,22.731-22.731,22.731C62.58,241.281,52.383,231.084,52.383,218.55z
		 M20.923,208.666L35.041,81.168h144.345v72.15c0,5.458,4.426,9.884,9.884,9.884h87.964v45.464h-14.021
		c-4.468-18.682-21.296-32.615-41.326-32.615c-20.031,0-36.859,13.934-41.327,32.615h-64.117
		c-4.468-18.682-21.296-32.615-41.326-32.615c-20.031,0-36.859,13.934-41.327,32.615H20.923z"/>
</g>
<g>
</g>
<g>
</g>
<g>
</g>
<g>
</g>
<g>
</g>
<g>
</g>
<g>
</g>
<g>
</g>
<g>
</g>
<g>
</g>
<g>
</g>
<g>
</g>
<g>
</g>
<g>
</g>
<g>
</g>
</svg>
