<?xml version="1.0" encoding="iso-8859-1"?>
<!-- Generator: Adobe Illustrator 18.0.0, SVG Export Plug-In . SVG Version: 6.00 Build 0)  -->
<!DOCTYPE svg PUBLIC "-//W3C//DTD SVG 1.1//EN" "http://www.w3.org/Graphics/SVG/1.1/DTD/svg11.dtd">
<svg version="1.1" id="Capa_1" xmlns="http://www.w3.org/2000/svg" xmlns:xlink="http://www.w3.org/1999/xlink" x="0px" y="0px"
	 viewBox="0 0 297 297" style="enable-background:new 0 0 297 297;" xml:space="preserve">
<g>
	<path d="M148.499,103.143c20.769,0,37.665-16.896,37.665-37.664c0-20.768-16.896-37.663-37.665-37.663
		c-20.768,0-37.663,16.896-37.663,37.663C110.836,86.247,127.731,103.143,148.499,103.143z M148.499,47.516
		c9.906,0,17.965,8.059,17.965,17.963c0,9.905-8.059,17.964-17.965,17.964c-9.904,0-17.963-8.059-17.963-17.964
		C130.536,55.574,138.595,47.516,148.499,47.516z"/>
	<path d="M148.499,186.586c20.769,0,37.665-16.896,37.665-37.664c0-20.769-16.896-37.664-37.665-37.664
		c-20.768,0-37.663,16.896-37.663,37.664C110.836,169.69,127.731,186.586,148.499,186.586z M148.499,130.957
		c9.906,0,17.965,8.06,17.965,17.965c0,9.905-8.059,17.964-17.965,17.964c-9.904,0-17.963-8.059-17.963-17.964
		C130.536,139.017,138.595,130.957,148.499,130.957z"/>
	<path d="M148.499,270.029c20.769,0,37.665-16.896,37.665-37.665c0-20.768-16.896-37.663-37.665-37.663
		c-20.768,0-37.663,16.895-37.663,37.663C110.836,253.133,127.731,270.029,148.499,270.029z M148.499,214.4
		c9.906,0,17.965,8.06,17.965,17.964c0,9.906-8.059,17.965-17.965,17.965c-9.904,0-17.963-8.059-17.963-17.965
		C130.536,222.46,138.595,214.4,148.499,214.4z"/>
	<path d="M229.763,183.232c5.439,0,9.85-4.41,9.85-9.85v-12.172l29.621-29.62c2.816-2.817,3.658-7.054,2.135-10.735
		c-1.524-3.68-5.116-6.08-9.101-6.08h-48.289v-12.805h15.784c5.439,0,9.85-4.411,9.85-9.851V79.948l29.621-29.62
		c2.816-2.817,3.658-7.054,2.135-10.735c-1.524-3.681-5.116-6.08-9.101-6.08h-48.289V9.851c0-5.44-4.41-9.851-9.85-9.851H92.871
		c-5.439,0-9.85,4.411-9.85,9.851v23.662H34.732c-3.984,0-7.576,2.399-9.101,6.08c-1.523,3.682-0.682,7.918,2.136,10.735
		l29.62,29.62V92.12c0,5.439,4.41,9.851,9.85,9.851h15.784v12.805H34.732c-3.984,0-7.576,2.4-9.101,6.08
		c-1.523,3.682-0.682,7.918,2.136,10.735l29.62,29.62v12.172c0,5.439,4.41,9.85,9.85,9.85h15.784v12.806H34.732
		c-3.984,0-7.576,2.399-9.101,6.08c-1.523,3.682-0.682,7.917,2.136,10.735l29.62,29.62v12.172c0,5.439,4.41,9.85,9.85,9.85h15.784
		v22.655c0,5.439,4.41,9.85,9.85,9.85h111.258c5.439,0,9.85-4.41,9.85-9.85v-22.655h15.784c5.439,0,9.85-4.41,9.85-9.85v-12.172
		l29.621-29.62c2.816-2.818,3.658-7.054,2.135-10.735c-1.524-3.681-5.116-6.08-9.101-6.08h-48.289v-12.806H229.763z
		 M238.487,134.476l-15.689,15.689c-1.848,1.848-2.885,4.353-2.885,6.966v6.402h-5.935v-29.058H238.487z M238.487,53.213
		l-15.689,15.689c-1.848,1.848-2.885,4.353-2.885,6.965v6.403h-5.935V53.213H238.487z M77.087,82.271v-6.403
		c0-2.612-1.037-5.117-2.885-6.965L58.513,53.213h24.509v29.058H77.087z M77.087,163.533v-6.402c0-2.613-1.037-5.118-2.885-6.966
		l-15.689-15.689h24.509v29.058H77.087z M77.087,244.795v-6.402c0-2.612-1.037-5.117-2.885-6.965l-15.689-15.689h24.509v29.057
		H77.087z M194.278,277.301h-91.557V19.7h91.557V277.301z M238.487,215.738l-15.689,15.689c-1.848,1.848-2.885,4.353-2.885,6.965
		v6.402h-5.935v-29.057H238.487z"/>
</g>
<g>
</g>
<g>
</g>
<g>
</g>
<g>
</g>
<g>
</g>
<g>
</g>
<g>
</g>
<g>
</g>
<g>
</g>
<g>
</g>
<g>
</g>
<g>
</g>
<g>
</g>
<g>
</g>
<g>
</g>
</svg>
