<?xml version="1.0" encoding="iso-8859-1"?>
<!-- Generator: Adobe Illustrator 18.0.0, SVG Export Plug-In . SVG Version: 6.00 Build 0)  -->
<!DOCTYPE svg PUBLIC "-//W3C//DTD SVG 1.1//EN" "http://www.w3.org/Graphics/SVG/1.1/DTD/svg11.dtd">
<svg version="1.1" id="Capa_1" xmlns="http://www.w3.org/2000/svg" xmlns:xlink="http://www.w3.org/1999/xlink" x="0px" y="0px"
	 viewBox="0 0 297 297" style="enable-background:new 0 0 297 297;" xml:space="preserve">
<path d="M269.287,241.574h-26.056L193.236,8.266C192.203,3.444,187.942,0,183.011,0h-69.021c-4.932,0-9.192,3.444-10.226,8.266
	L53.769,241.574H27.713c-5.775,0-10.458,4.683-10.458,10.457v34.511c0,5.775,4.683,10.458,10.458,10.458h241.574
	c5.775,0,10.458-4.683,10.458-10.458v-34.511C279.745,246.257,275.063,241.574,269.287,241.574z M111.352,72.681
	c0.005,0,0.01,0.001,0.017,0.001h74.264c0.007,0,0.012-0.001,0.017-0.001l6.611,30.851h-87.52L111.352,72.681z M174.557,20.916
	l6.61,30.85h-65.334l6.61-30.85H174.557z M100.259,124.447h96.482l25.099,117.127H75.16L100.259,124.447z M258.829,262.489v13.595
	H38.171v-13.595H258.829z"/>
<g>
</g>
<g>
</g>
<g>
</g>
<g>
</g>
<g>
</g>
<g>
</g>
<g>
</g>
<g>
</g>
<g>
</g>
<g>
</g>
<g>
</g>
<g>
</g>
<g>
</g>
<g>
</g>
<g>
</g>
</svg>
